<svg xmlns="http://www.w3.org/2000/svg" width="100" height="100" viewBox="-25 -25 100 100"><path fill="#FFF" d="M52.5 24.961v2.117a2.115 2.115 0 0 1-2.117 2.118h-4.236v4.235a2.114 2.114 0 0 1-2.118 2.117h-2.116a2.114 2.114 0 0 1-2.117-2.117v-4.235H35.56a2.116 2.116 0 0 1-2.118-2.118v-2.117c0-1.172.947-2.116 2.118-2.116h4.235v-4.237c0-1.172.947-2.116 2.117-2.116h2.116c1.173 0 2.118.946 2.118 2.116v4.237h4.236a2.112 2.112 0 0 1 2.118 2.116zM31.145 42.62c.111.453.129.803.057 1.025-.079.224-.318.344-.729.344h-6.945c-.634 0-1.066-.146-1.291-.428-.225-.288-.43-.738-.615-1.34l-1.798-6.67H8.491L6.618 42.39c-.189.607-.429 1.03-.729 1.256-.3.224-.709.344-1.233.344h-6.215c-.412 0-.692-.084-.839-.258-.152-.17-.134-.578.055-1.228L8.467 7.67c.187-.531.41-.942.672-1.231.258-.282.762-.428 1.513-.428h7.057c.784 0 1.295.157 1.54.461.242.304.456.723.643 1.254L31.145 42.62zM18.113 29.198l-3.771-13.989h-.278l-3.833 13.989h7.882z"/></svg>