<svg xmlns="http://www.w3.org/2000/svg" width="100" height="100" viewBox="-25 -25 100 100"><path fill="#FFF" d="M52.5 24.962v2.119a2.114 2.114 0 0 1-2.118 2.117H35.556a2.116 2.116 0 0 1-2.118-2.117v-2.119c0-1.172.947-2.118 2.118-2.118h14.826c1.173 0 2.118.946 2.118 2.118zM31.145 42.621c.111.453.13.8.058 1.023-.077.224-.318.343-.728.343h-6.946c-.635 0-1.064-.146-1.291-.428-.224-.288-.429-.738-.615-1.34l-1.798-6.67H8.49l-1.875 6.838c-.188.608-.43 1.031-.729 1.257-.297.224-.709.343-1.232.343H-1.56c-.411 0-.691-.086-.838-.258-.152-.17-.134-.577.056-1.226L8.465 7.67c.185-.532.41-.941.671-1.23.259-.282.765-.428 1.514-.428h7.057c.783 0 1.297.156 1.539.459.241.304.456.722.644 1.254l11.255 34.896zM18.114 29.198L14.341 15.21h-.278L10.23 29.198h7.884z"/></svg>