<svg xmlns="http://www.w3.org/2000/svg" width="60" height="60" viewBox="-0.5 -0.5 60 60"><path fill="#FFF" d="M29.5-.5c-16.568 0-30 13.432-30 30s13.432 30 30 30 30-13.432 30-30-13.432-30-30-30zm8.645 19.08c0 .376-.109.682-.487.682l-2.57.001c-2.012 0-2.027.784-2.027 2.33v3.332h4.59c.181 0 .355.013.482.142a.619.619 0 0 1 .201.452l-.002 5.67c0 .374-.307.854-.684.854H33.06v13.489c0 .375-.813.748-1.188.748h-5.685c-.376 0-.245-.373-.245-.748v-13.49h-4.794c-.376 0-.291-.683-.291-1.059v-5.494c0-.376-.085-.565.291-.565h4.794v-3.909c0-4.997 2.927-8.225 7.797-8.225l4.029.006c.376.001.377.306.377.681v5.103z"/></svg>