<svg xmlns="http://www.w3.org/2000/svg" width="60" height="60" viewBox="-0.5 -0.5 60 60"><g fill="#FFF"><path d="M24.76 35.701c-7.104.68-12.462 2.833-12.462 5.304 0 2.999 7.876 5.532 17.2 5.532 9.326 0 17.201-2.534 17.201-5.532 0-2.473-5.357-4.624-12.461-5.304-2.441 3.511-4.74 6.057-4.74 6.057s-2.298-2.546-4.738-6.057z"/><path d="M29.5-.5c-16.569 0-30 13.432-30 30s13.431 30 30 30c16.568 0 30-13.433 30-30 0-16.568-13.432-30-30-30zm-.001 47.548c-9.932 0-17.71-2.654-17.71-6.042 0-2.784 5.255-5.069 12.636-5.797-2.654-3.899-5.354-8.845-5.354-12.827A10.42 10.42 0 0 1 29.5 11.955c5.77 0 10.43 4.662 10.43 10.427 0 3.982-2.702 8.927-5.354 12.827 7.382.728 12.637 3.013 12.637 5.797-.001 3.388-7.78 6.042-17.714 6.042z"/><path d="M33.226 22.381a3.73 3.73 0 0 0-3.727-3.725 3.727 3.727 0 1 0 3.727 3.725z"/></g></svg>