<?xml version="1.0" encoding="utf-8"?>
<!-- Generator: Adobe Illustrator 16.0.3, SVG Export Plug-In . SVG Version: 6.00 Build 0)  -->
<!DOCTYPE svg PUBLIC "-//W3C//DTD SVG 1.1//EN" "http://www.w3.org/Graphics/SVG/1.1/DTD/svg11.dtd">
<svg version="1.1" id="Layer" xmlns="http://www.w3.org/2000/svg" xmlns:xlink="http://www.w3.org/1999/xlink" x="0px" y="0px"
	 width="50px" height="50px" viewBox="231 231 50 50" enable-background="new 231 231 50 50" xml:space="preserve">
<path fill="#FFFFFF" d="M261.604,235.742c-0.833-0.793-2.152-0.762-2.945,0.072c-0.794,0.833-0.761,2.152,0.072,2.946l15.981,15.157
	h-41.628c-1.15,0-2.083,0.934-2.083,2.083c0,1.149,0.933,2.083,2.083,2.083h41.561l-15.914,15.158
	c-0.834,0.794-0.866,2.113-0.072,2.946c0.409,0.429,0.958,0.646,1.509,0.646c0.517,0,1.033-0.19,1.437-0.575l18.176-17.313
	c0.787-0.786,1.221-1.832,1.221-2.945c0-1.114-0.434-2.16-1.258-2.981L261.604,235.742z"/>
</svg>
