<?xml version="1.0" encoding="utf-8"?>
<!-- Generator: Adobe Illustrator 16.0.3, SVG Export Plug-In . SVG Version: 6.00 Build 0)  -->
<!DOCTYPE svg PUBLIC "-//W3C//DTD SVG 1.1//EN" "http://www.w3.org/Graphics/SVG/1.1/DTD/svg11.dtd">
<svg version="1.1" id="Capa_1" xmlns="http://www.w3.org/2000/svg" xmlns:xlink="http://www.w3.org/1999/xlink" x="0px" y="0px"
	 width="50px" height="50px" viewBox="7 7 50 50" enable-background="new 7 7 50 50" xml:space="preserve">
<path fill="#FFFFFF" d="M7.703,11.17c-0.937-0.937-0.937-2.498,0-3.468c0.971-0.937,2.499-0.937,3.47,0l20.815,20.845L52.839,7.703
	c0.938-0.937,2.498-0.937,3.434,0c0.971,0.97,0.971,2.533,0,3.468L35.457,31.983l20.815,20.846c0.971,0.938,0.971,2.497,0,3.467
	c-0.937,0.939-2.498,0.939-3.434,0L31.987,35.45L11.173,56.296c-0.971,0.939-2.499,0.939-3.47,0c-0.937-0.969-0.937-2.531,0-3.467
	l20.815-20.846L7.703,11.17z"/>
</svg>
