<svg xmlns="http://www.w3.org/2000/svg" width="100" height="100" viewBox="-5.319 -5.317 100 100"><path fill="#FFF" d="M65.9 46.531c1.018 0 1.85-.83 1.85-1.849a1.851 1.851 0 0 0-1.85-1.849h-5.154v-3.308H65.9c1.018 0 1.85-.83 1.85-1.848a1.853 1.853 0 0 0-1.85-1.851h-7.006a1.849 1.849 0 0 0-1.846 1.851v14.004a1.85 1.85 0 0 0 1.846 1.851H65.9c1.018 0 1.85-.83 1.85-1.851a1.852 1.852 0 0 0-1.85-1.849h-5.154v-3.308H65.9v.007zM52.721 35.829c-1.02 0-1.852.83-1.852 1.85v8.666l-7.176-9.774c-.35-.466-.9-.739-1.479-.739-.195 0-.396.03-.586.098a1.846 1.846 0 0 0-1.264 1.752V51.69c0 1.02.828 1.85 1.85 1.85a1.851 1.851 0 0 0 1.848-1.85v-8.666l7.18 9.773c.346.461.9.74 1.475.74.201 0 .396-.033.588-.096a1.843 1.843 0 0 0 1.264-1.754V37.678a1.85 1.85 0 0 0-1.848-1.849zm-16.858 0c-1.021 0-1.85.83-1.85 1.85v14.008c0 1.02.828 1.85 1.85 1.85a1.85 1.85 0 0 0 1.846-1.85V37.678a1.85 1.85 0 0 0-1.846-1.849zm-5.398 14.008h-5.152v-12.16a1.85 1.85 0 0 0-3.7 0v14.008c0 1.02.83 1.85 1.85 1.85h7.002c1.021 0 1.852-.83 1.852-1.85a1.855 1.855 0 0 0-1.852-1.848z"/></svg>