<svg xmlns="http://www.w3.org/2000/svg" width="100" height="100" viewBox="-5.318 -5.317 100 100"><path fill="#FFF" d="M64.556 32.359a16.32 16.32 0 0 1-4.684 1.289 8.225 8.225 0 0 0 3.592-4.517 16.24 16.24 0 0 1-5.189 1.979 8.153 8.153 0 0 0-14.096 5.58c0 .643.075 1.26.209 1.855-6.781-.342-12.785-3.581-16.812-8.517a8.096 8.096 0 0 0-1.104 4.101 8.129 8.129 0 0 0 3.627 6.778 8.017 8.017 0 0 1-3.687-1.018v.101a8.174 8.174 0 0 0 6.535 8.005 8.299 8.299 0 0 1-3.686.133c1.045 3.235 4.049 5.593 7.614 5.664a16.359 16.359 0 0 1-10.127 3.479 17.6 17.6 0 0 1-1.94-.108 23.08 23.08 0 0 0 12.502 3.664c14.995 0 23.194-12.421 23.194-23.191l-.023-1.058a16.317 16.317 0 0 0 4.075-4.219z"/></svg>