<?xml version="1.0" encoding="utf-8"?>
<!-- Generator: Adobe Illustrator 16.0.3, SVG Export Plug-In . SVG Version: 6.00 Build 0)  -->
<!DOCTYPE svg PUBLIC "-//W3C//DTD SVG 1.1//EN" "http://www.w3.org/Graphics/SVG/1.1/DTD/svg11.dtd">
<svg version="1.1" id="Layer" xmlns="http://www.w3.org/2000/svg" xmlns:xlink="http://www.w3.org/1999/xlink" x="0px" y="0px"
	 width="50px" height="50px" viewBox="231 231 50 50" enable-background="new 231 231 50 50" xml:space="preserve">
<path fill="#FFFFFF" d="M278.917,253.917h-41.562l15.915-15.159c0.833-0.793,0.865-2.112,0.072-2.946
	c-0.793-0.832-2.111-0.865-2.946-0.072l-18.175,17.313C231.435,253.841,231,254.887,231,256c0,1.112,0.435,2.159,1.257,2.981
	l18.14,17.277c0.403,0.384,0.92,0.575,1.437,0.575c0.55,0,1.1-0.217,1.509-0.647c0.793-0.833,0.761-2.151-0.072-2.944
	l-15.981-15.158h41.627c1.149,0,2.083-0.934,2.083-2.084C281,254.85,280.066,253.917,278.917,253.917L278.917,253.917z"/>
</svg>
