<?xml version="1.0" encoding="utf-8"?>
<!-- Generator: Adobe Illustrator 16.0.3, SVG Export Plug-In . SVG Version: 6.00 Build 0)  -->
<!DOCTYPE svg PUBLIC "-//W3C//DTD SVG 1.1//EN" "http://www.w3.org/Graphics/SVG/1.1/DTD/svg11.dtd">
<svg version="1.1" id="Layer_1" xmlns="http://www.w3.org/2000/svg" xmlns:xlink="http://www.w3.org/1999/xlink" x="0px" y="0px"
	 width="50px" height="50px" viewBox="272.64 395.945 50 50" enable-background="new 272.64 395.945 50 50" xml:space="preserve">
<g id="XMLID_16_">
	<path id="XMLID_17_" fill="#FFFFFF" d="M319.069,395.945h-4.762c-1.973,0-3.571,1.6-3.571,3.571v4.763
		c0,1.972,1.599,3.571,3.571,3.571h4.762c1.973,0,3.571-1.6,3.571-3.571v-4.763C322.64,397.545,321.042,395.945,319.069,395.945z"/>
	<path id="XMLID_18_" fill="#FFFFFF" d="M300.021,395.945h-4.762c-1.972,0-3.571,1.6-3.571,3.571v4.763
		c0,1.972,1.599,3.571,3.571,3.571h4.762c1.973,0,3.572-1.6,3.572-3.571v-4.763C303.593,397.545,301.994,395.945,300.021,395.945z"
		/>
	<path id="XMLID_19_" fill="#FFFFFF" d="M280.974,395.945h-4.762c-1.973,0-3.572,1.6-3.572,3.571v4.763
		c0,1.972,1.599,3.571,3.572,3.571h4.762c1.973,0,3.571-1.6,3.571-3.571v-4.763C284.545,397.545,282.946,395.945,280.974,395.945z"
		/>
	<path id="XMLID_20_" fill="#FFFFFF" d="M319.069,434.041h-4.762c-1.973,0-3.571,1.599-3.571,3.571v4.762
		c0,1.973,1.599,3.571,3.571,3.571h4.762c1.973,0,3.571-1.599,3.571-3.571v-4.762C322.64,435.64,321.042,434.041,319.069,434.041z"
		/>
	<path id="XMLID_21_" fill="#FFFFFF" d="M300.021,434.041h-4.762c-1.972,0-3.571,1.599-3.571,3.571v4.762
		c0,1.973,1.599,3.571,3.571,3.571h4.762c1.973,0,3.572-1.599,3.572-3.571v-4.762C303.593,435.64,301.994,434.041,300.021,434.041z"
		/>
	<path id="XMLID_22_" fill="#FFFFFF" d="M280.974,434.041h-4.762c-1.973,0-3.572,1.599-3.572,3.571v4.762
		c0,1.973,1.599,3.571,3.572,3.571h4.762c1.973,0,3.571-1.599,3.571-3.571v-4.762C284.545,435.64,282.946,434.041,280.974,434.041z"
		/>
	<path id="XMLID_23_" fill="#FFFFFF" d="M319.069,414.993h-4.762c-1.973,0-3.571,1.599-3.571,3.571v4.763
		c0,1.972,1.599,3.571,3.571,3.571h4.762c1.973,0,3.571-1.6,3.571-3.571v-4.763C322.64,416.592,321.042,414.993,319.069,414.993z"/>
	<path id="XMLID_24_" fill="#FFFFFF" d="M300.021,414.993h-4.762c-1.972,0-3.571,1.599-3.571,3.571v4.763
		c0,1.972,1.599,3.571,3.571,3.571h4.762c1.973,0,3.572-1.6,3.572-3.571v-4.763C303.593,416.592,301.994,414.993,300.021,414.993z"
		/>
	<path id="XMLID_25_" fill="#FFFFFF" d="M280.974,414.993h-4.762c-1.973,0-3.572,1.599-3.572,3.571v4.763
		c0,1.972,1.599,3.571,3.572,3.571h4.762c1.973,0,3.571-1.6,3.571-3.571v-4.763C284.545,416.592,282.946,414.993,280.974,414.993z"
		/>
</g>
</svg>
