<?xml version="1.0" encoding="utf-8"?>
<!-- Generator: Adobe Illustrator 16.0.3, SVG Export Plug-In . SVG Version: 6.00 Build 0)  -->
<!DOCTYPE svg PUBLIC "-//W3C//DTD SVG 1.1//EN" "http://www.w3.org/Graphics/SVG/1.1/DTD/svg11.dtd">
<svg version="1.1" id="圖層_1" xmlns="http://www.w3.org/2000/svg" xmlns:xlink="http://www.w3.org/1999/xlink" x="0px" y="0px"
	 width="50px" height="50px" viewBox="7 7 50 50" enable-background="new 7 7 50 50" xml:space="preserve">
<g>
	<g>
		<path fill="#FFFFFF" d="M28.346,45.541c-9.479,0-17.163-7.674-17.163-17.153s7.683-17.152,17.163-17.152
			c9.48,0,17.153,7.685,17.153,17.152C45.499,37.856,37.814,45.541,28.346,45.541z M56.388,53.5L44.826,41.938
			c3.03-3.684,4.856-8.407,4.856-13.55c0-11.786-9.551-21.347-21.346-21.347C16.541,7.042,7,16.603,7,28.388
			s9.551,21.346,21.346,21.346c5.143,0,9.856-1.816,13.541-4.846l11.562,11.561c0.53,0.539,2.151,0.807,2.949,0
			C57.202,55.631,57.202,54.316,56.388,53.5z"/>
		<g>
			<path fill="#FFFFFF" d="M37.53,28.388c0-1.152-0.939-2.082-2.082-2.082h-5.031h-4.164h-5.031c-1.152,0-2.082,0.929-2.082,2.082
				c0,1.152,0.929,2.082,2.082,2.082h5.031h4.164h5.031C36.603,30.469,37.53,29.541,37.53,28.388z"/>
		</g>
	</g>
</g>
</svg>
