<svg xmlns="http://www.w3.org/2000/svg" width="100" height="100"><path fill="#FFF" d="M76.269 61.359c-4.861 0-9.127 2.308-11.92 5.853L38.406 53.945c.341-1.262.578-2.569.578-3.947 0-1.507-.278-2.921-.688-4.28l25.809-13.204c2.795 3.708 7.172 6.11 12.164 6.11 8.453 0 15.271-6.816 15.271-15.256 0-8.434-6.817-15.271-15.271-15.271-8.42 0-15.254 6.836-15.254 15.271 0 1.377.24 2.687.576 3.949l-25.922 13.26c-2.795-3.536-7.074-5.851-11.937-5.851-8.435 0-15.271 6.836-15.271 15.271 0 8.438 6.836 15.271 15.271 15.271 4.99 0 9.365-2.436 12.16-6.146L61.704 72.33c-.411 1.372-.708 2.795-.708 4.302 0 8.438 6.853 15.271 15.271 15.271 8.437 0 15.271-6.829 15.271-15.271.001-8.437-6.835-15.273-15.269-15.273z"/></svg>