<?xml version="1.0" encoding="utf-8"?>
<!-- Generator: Adobe Illustrator 16.0.0, SVG Export Plug-In . SVG Version: 6.00 Build 0)  -->
<!DOCTYPE svg PUBLIC "-//W3C//DTD SVG 1.1//EN" "http://www.w3.org/Graphics/SVG/1.1/DTD/svg11.dtd" [
	<!ENTITY ns_extend "http://ns.adobe.com/Extensibility/1.0/">
	<!ENTITY ns_ai "http://ns.adobe.com/AdobeIllustrator/10.0/">
	<!ENTITY ns_graphs "http://ns.adobe.com/Graphs/1.0/">
	<!ENTITY ns_vars "http://ns.adobe.com/Variables/1.0/">
	<!ENTITY ns_imrep "http://ns.adobe.com/ImageReplacement/1.0/">
	<!ENTITY ns_sfw "http://ns.adobe.com/SaveForWeb/1.0/">
	<!ENTITY ns_custom "http://ns.adobe.com/GenericCustomNamespace/1.0/">
	<!ENTITY ns_adobe_xpath "http://ns.adobe.com/XPath/1.0/">
]>
<svg version="1.1" id="Layer_1" xmlns:x="&ns_extend;" xmlns:i="&ns_ai;" xmlns:graph="&ns_graphs;"
	 xmlns="http://www.w3.org/2000/svg" xmlns:xlink="http://www.w3.org/1999/xlink" x="0px" y="0px" width="400px" height="400px"
	 viewBox="0 0 400 400" enable-background="new 0 0 400 400" xml:space="preserve">
<metadata>
	<sfw  xmlns="&ns_sfw;">
		<slices></slices>
		<sliceSourceBounds  width="398.5" height="398.5" y="0.5" x="1" bottomLeftOrigin="true"></sliceSourceBounds>
	</sfw>
</metadata>
<path fill="#00B900" d="M400,352.747C400,378.844,378.844,400,352.747,400H48.753C22.656,400,1.5,378.844,1.5,352.747V48.753
	C1.5,22.656,22.656,1.5,48.753,1.5h303.994C378.844,1.5,400,22.656,400,48.753V352.747z"/>
<path fill="#FFFFFF" d="M347.312,186.465c0-66.749-66.915-121.055-149.168-121.055c-82.246,0-149.162,54.306-149.162,121.055
	c0,59.838,53.065,109.949,124.746,119.425c4.858,1.047,11.47,3.204,13.14,7.358c1.504,3.768,0.987,9.679,0.483,13.486
	c0,0-1.75,10.526-2.127,12.771c-0.65,3.771-3.001,14.75,12.92,8.041c15.924-6.711,85.906-50.585,117.2-86.606h-0.006
	C336.956,237.234,347.312,213.175,347.312,186.465"/>
<path fill="#00B900" d="M167.836,154.211h-10.462c-1.607,0-2.907,1.3-2.907,2.9v64.996c0,1.597,1.3,2.894,2.907,2.894h10.462
	c1.607,0,2.907-1.297,2.907-2.894v-64.996C170.743,155.511,169.444,154.211,167.836,154.211"/>
<path fill="#00B900" d="M239.854,154.211h-10.463c-1.607,0-2.904,1.3-2.904,2.9v38.613l-29.79-40.226
	c-0.066-0.1-0.146-0.2-0.224-0.293l-0.017-0.02c-0.06-0.06-0.116-0.12-0.18-0.177c-0.014-0.017-0.033-0.037-0.047-0.05
	c-0.054-0.046-0.106-0.09-0.16-0.133c-0.023-0.02-0.047-0.04-0.073-0.057c-0.047-0.033-0.1-0.066-0.153-0.104
	c-0.026-0.02-0.057-0.033-0.087-0.05c-0.053-0.03-0.1-0.063-0.153-0.09c-0.033-0.014-0.06-0.027-0.093-0.043
	c-0.054-0.023-0.107-0.05-0.167-0.07c-0.033-0.014-0.06-0.027-0.094-0.034c-0.057-0.02-0.113-0.04-0.173-0.057
	c-0.033-0.01-0.063-0.017-0.101-0.026c-0.057-0.014-0.113-0.023-0.166-0.037c-0.04-0.006-0.084-0.013-0.12-0.013
	c-0.054-0.013-0.104-0.02-0.153-0.02c-0.054-0.007-0.101-0.007-0.153-0.013c-0.037,0-0.067,0-0.101,0h-10.462
	c-1.604,0-2.908,1.3-2.908,2.9v64.996c0,1.597,1.305,2.894,2.908,2.894h10.462c1.607,0,2.907-1.297,2.907-2.894v-38.606
	l29.82,40.276c0.204,0.29,0.461,0.527,0.74,0.717c0.007,0.006,0.017,0.014,0.027,0.026c0.06,0.034,0.119,0.073,0.18,0.104
	c0.026,0.017,0.057,0.036,0.083,0.05c0.044,0.023,0.091,0.043,0.141,0.063c0.043,0.021,0.09,0.04,0.14,0.063
	c0.03,0.014,0.057,0.023,0.084,0.033c0.069,0.02,0.133,0.04,0.203,0.061c0.01,0.003,0.026,0.006,0.04,0.01
	c0.236,0.066,0.483,0.097,0.743,0.097h10.463c1.604,0,2.907-1.297,2.907-2.894v-64.996
	C242.761,155.511,241.457,154.211,239.854,154.211"/>
<path fill="#00B900" d="M142.614,208.73h-28.43v-51.619c0-1.607-1.301-2.907-2.9-2.907h-10.466c-1.604,0-2.904,1.3-2.904,2.907
	V222.1v0.004c0,0.78,0.31,1.483,0.813,2.008c0.007,0.013,0.02,0.029,0.037,0.043c0.017,0.014,0.029,0.026,0.043,0.039
	c0.523,0.501,1.227,0.811,2.004,0.811h0.007h41.796c1.604,0,2.904-1.303,2.904-2.904v-10.465
	C145.518,210.031,144.217,208.73,142.614,208.73"/>
<path fill="#00B900" d="M297.634,170.485c1.604,0,2.9-1.304,2.9-2.904v-10.466c0-1.604-1.297-2.904-2.9-2.904h-41.797h-0.007
	c-0.78,0-1.486,0.307-2.014,0.817c-0.01,0.01-0.023,0.023-0.033,0.03c-0.021,0.02-0.033,0.033-0.047,0.053
	c-0.497,0.521-0.807,1.221-0.807,2v0.003v64.989v0.004c0,0.776,0.313,1.482,0.813,2.006c0.014,0.011,0.026,0.027,0.04,0.041
	s0.03,0.026,0.04,0.036c0.521,0.504,1.227,0.813,2.007,0.813h0.007h41.797c1.604,0,2.9-1.3,2.9-2.9v-10.469
	c0-1.604-1.297-2.904-2.9-2.904h-28.427v-10.989h28.427c1.604,0,2.9-1.294,2.9-2.904v-10.459c0-1.607-1.297-2.911-2.9-2.911h-28.427
	v-10.982H297.634z"/>
</svg>
