<?xml version="1.0" encoding="utf-8"?>
<!-- Generator: Adobe Illustrator 16.0.0, SVG Export Plug-In . SVG Version: 6.00 Build 0)  -->
<!DOCTYPE svg PUBLIC "-//W3C//DTD SVG 1.1//EN" "http://www.w3.org/Graphics/SVG/1.1/DTD/svg11.dtd" [
	<!ENTITY ns_extend "http://ns.adobe.com/Extensibility/1.0/">
	<!ENTITY ns_ai "http://ns.adobe.com/AdobeIllustrator/10.0/">
	<!ENTITY ns_graphs "http://ns.adobe.com/Graphs/1.0/">
	<!ENTITY ns_vars "http://ns.adobe.com/Variables/1.0/">
	<!ENTITY ns_imrep "http://ns.adobe.com/ImageReplacement/1.0/">
	<!ENTITY ns_sfw "http://ns.adobe.com/SaveForWeb/1.0/">
	<!ENTITY ns_custom "http://ns.adobe.com/GenericCustomNamespace/1.0/">
	<!ENTITY ns_adobe_xpath "http://ns.adobe.com/XPath/1.0/">
]>
<svg version="1.1" id="Layer_1" xmlns:x="&ns_extend;" xmlns:i="&ns_ai;" xmlns:graph="&ns_graphs;"
	 xmlns="http://www.w3.org/2000/svg" xmlns:xlink="http://www.w3.org/1999/xlink" x="0px" y="0px" width="400px" height="400px"
	 viewBox="0 0 400 400" enable-background="new 0 0 400 400" xml:space="preserve">
<metadata>
	<sfw  xmlns="&ns_sfw;">
		<slices></slices>
		<sliceSourceBounds  width="398.5" height="398.5" y="0.5" x="1" bottomLeftOrigin="true"></sliceSourceBounds>
	</sfw>
</metadata>
<path fill="#494949" d="M400,352.747C400,378.844,378.844,400,352.746,400H48.753C22.656,400,1.5,378.844,1.5,352.747V48.753
	C1.5,22.656,22.656,1.5,48.753,1.5h303.993C378.844,1.5,400,22.656,400,48.753V352.747z"/>
<path fill="#FFFFFF" d="M347.312,186.465c0-66.749-66.915-121.055-149.168-121.055c-82.246,0-149.162,54.306-149.162,121.055
	c0,59.838,53.065,109.949,124.746,119.426c4.858,1.047,11.471,3.203,13.141,7.357c1.504,3.768,0.986,9.679,0.482,13.486
	c0,0-1.75,10.525-2.127,12.771c-0.649,3.771-3.001,14.75,12.92,8.041c15.924-6.711,85.906-50.585,117.2-86.606h-0.006
	C336.955,237.234,347.312,213.175,347.312,186.465"/>
<path fill="#494949" d="M167.836,154.211h-10.462c-1.607,0-2.907,1.3-2.907,2.9v64.997c0,1.597,1.3,2.894,2.907,2.894h10.462
	c1.606,0,2.907-1.297,2.907-2.894v-64.997C170.743,155.511,169.444,154.211,167.836,154.211"/>
<path fill="#494949" d="M239.854,154.211h-10.463c-1.606,0-2.904,1.3-2.904,2.9v38.613l-29.79-40.226
	c-0.065-0.1-0.146-0.2-0.224-0.293l-0.017-0.02c-0.061-0.06-0.116-0.12-0.181-0.177c-0.014-0.017-0.032-0.037-0.047-0.05
	c-0.054-0.046-0.105-0.09-0.16-0.133c-0.022-0.02-0.047-0.04-0.072-0.057c-0.047-0.033-0.101-0.066-0.153-0.104
	c-0.026-0.02-0.057-0.033-0.087-0.05c-0.053-0.03-0.101-0.063-0.153-0.09c-0.033-0.014-0.06-0.027-0.093-0.043
	c-0.054-0.023-0.107-0.05-0.167-0.07c-0.033-0.014-0.06-0.027-0.094-0.034c-0.058-0.02-0.113-0.04-0.173-0.057
	c-0.033-0.01-0.063-0.017-0.102-0.026c-0.057-0.014-0.113-0.023-0.166-0.037c-0.04-0.006-0.084-0.013-0.12-0.013
	c-0.054-0.013-0.104-0.02-0.152-0.02c-0.055-0.007-0.102-0.007-0.153-0.013c-0.037,0-0.067,0-0.101,0H183.82
	c-1.604,0-2.907,1.3-2.907,2.9v64.997c0,1.597,1.305,2.894,2.907,2.894h10.463c1.606,0,2.906-1.297,2.906-2.894v-38.606
	l29.82,40.276c0.204,0.289,0.461,0.526,0.74,0.717c0.007,0.006,0.017,0.014,0.026,0.025c0.061,0.034,0.119,0.073,0.181,0.104
	c0.025,0.017,0.057,0.036,0.083,0.05c0.044,0.023,0.091,0.043,0.141,0.063c0.043,0.021,0.09,0.041,0.14,0.063
	c0.03,0.015,0.058,0.022,0.084,0.033c0.069,0.021,0.134,0.04,0.203,0.062c0.011,0.002,0.026,0.006,0.04,0.01
	c0.236,0.065,0.483,0.097,0.743,0.097h10.463c1.604,0,2.907-1.297,2.907-2.894v-64.997
	C242.761,155.511,241.457,154.211,239.854,154.211"/>
<path fill="#494949" d="M142.614,208.73h-28.43v-51.62c0-1.607-1.301-2.907-2.899-2.907h-10.467c-1.604,0-2.903,1.3-2.903,2.907
	V222.1v0.004c0,0.78,0.31,1.483,0.813,2.008c0.007,0.014,0.021,0.029,0.037,0.043c0.017,0.015,0.029,0.027,0.043,0.039
	c0.523,0.502,1.228,0.812,2.004,0.812h0.007h41.796c1.604,0,2.904-1.303,2.904-2.903v-10.466
	C145.518,210.031,144.217,208.73,142.614,208.73"/>
<path fill="#494949" d="M297.634,170.485c1.604,0,2.899-1.304,2.899-2.904v-10.466c0-1.604-1.297-2.904-2.899-2.904h-41.797h-0.007
	c-0.78,0-1.486,0.307-2.015,0.817c-0.01,0.01-0.022,0.023-0.032,0.03c-0.021,0.02-0.033,0.033-0.048,0.053
	c-0.497,0.521-0.807,1.221-0.807,2v0.003v64.99v0.004c0,0.775,0.313,1.481,0.813,2.006c0.014,0.011,0.025,0.027,0.04,0.041
	c0.014,0.014,0.029,0.025,0.039,0.035c0.521,0.504,1.228,0.813,2.008,0.813h0.007h41.797c1.604,0,2.899-1.3,2.899-2.899v-10.47
	c0-1.604-1.297-2.903-2.899-2.903h-28.427v-10.989h28.427c1.604,0,2.899-1.294,2.899-2.904v-10.459c0-1.607-1.297-2.911-2.899-2.911
	h-28.427v-10.982H297.634z"/>
</svg>
