<?xml version="1.0" encoding="utf-8"?>
<!-- Generator: Adobe Illustrator 16.0.0, SVG Export Plug-In . SVG Version: 6.00 Build 0)  -->
<!DOCTYPE svg PUBLIC "-//W3C//DTD SVG 1.1//EN" "http://www.w3.org/Graphics/SVG/1.1/DTD/svg11.dtd" [
	<!ENTITY ns_extend "http://ns.adobe.com/Extensibility/1.0/">
	<!ENTITY ns_ai "http://ns.adobe.com/AdobeIllustrator/10.0/">
	<!ENTITY ns_graphs "http://ns.adobe.com/Graphs/1.0/">
	<!ENTITY ns_vars "http://ns.adobe.com/Variables/1.0/">
	<!ENTITY ns_imrep "http://ns.adobe.com/ImageReplacement/1.0/">
	<!ENTITY ns_sfw "http://ns.adobe.com/SaveForWeb/1.0/">
	<!ENTITY ns_custom "http://ns.adobe.com/GenericCustomNamespace/1.0/">
	<!ENTITY ns_adobe_xpath "http://ns.adobe.com/XPath/1.0/">
]>
<svg version="1.1" id="圖層_1" xmlns:x="&ns_extend;" xmlns:i="&ns_ai;" xmlns:graph="&ns_graphs;"
	 xmlns="http://www.w3.org/2000/svg" xmlns:xlink="http://www.w3.org/1999/xlink" x="0px" y="0px" width="400px" height="400px"
	 viewBox="0 0 400 400" enable-background="new 0 0 400 400" xml:space="preserve">
<metadata>
	<sfw  xmlns="&ns_sfw;">
		<slices></slices>
		<sliceSourceBounds  width="400" height="400" x="-0.5" y="0.5" bottomLeftOrigin="true"></sliceSourceBounds>
	</sfw>
</metadata>
<path fill="#7D7D7D" d="M257.534,206.393c-3.653-3.652-3.653-9.132,0-12.785L394.521,56.621c3.652-3.653,5.479-9.132,5.479-12.786
	c0-3.653-1.827-9.132-5.479-12.785L368.949,5.479C365.296,1.827,359.817,0,356.164,0c-5.479,0-9.133,1.827-12.785,5.479
	L206.393,142.466c-3.653,3.653-9.133,3.653-12.785,0L56.621,5.479C52.968,1.827,47.489,0,43.835,0
	c-3.652,0-9.132,1.827-12.785,5.479L5.48,31.05C1.826,34.703,0,40.183,0,43.835c0,3.653,1.826,9.132,5.479,12.786l136.986,136.986
	c3.652,3.653,3.652,9.133,0,12.785L5.48,343.379C1.826,347.032,0,352.512,0,356.164c0,3.653,1.826,9.133,5.479,12.785l25.57,25.571
	c3.653,3.653,9.133,5.479,12.785,5.479c3.653,0,9.133-1.826,12.786-5.479l136.986-136.986c3.652-3.653,9.132-3.653,12.785,0
	l136.986,136.986c3.652,3.653,9.132,5.479,12.785,5.479c3.652,0,9.132-1.826,12.785-5.479l25.571-25.571
	c3.652-3.652,5.479-9.132,5.479-12.785c0-3.652-1.827-9.132-5.479-12.785L257.534,206.393z"/>
</svg>
