<svg xmlns="http://www.w3.org/2000/svg" width="1048.793" height="223.553"><path fill="#FFF" d="M342.81 51.418c-.381-.807-2.535-3.034-3.715-3.853a1.548 1.548 0 0 0-.988-.416c-1.578-.822-3.956-1.66-4.955-1.479-.2-.002-.399-.007-.597-.011-.999-.019-1.196-.021-2.591-.045-1.591-.028-.625 1.782-.625 1.782s1.547 2.416 2.535 3.028c.2.006.397.208.592.412.576 1.004 1.146 2.81 2.32 4.022.581.807 1.96 1.632 3.147 2.248.988.414 1.782.625 2.772.844 2.378.637 1.021-1.575 1.445-2.963.622-1.38.847-2.771.66-3.569z"/><path fill="#FFF" d="M363.089 42.406c-1.384-.618-1.565-1.62-2.552-2.432-.979-.815-1.985-.234-2.963-1.247-.981-1.017-2.755-1.84-3.153-1.85-.599-.009-1.997.363-4.397.719-2.394.159-6.988.878-9.967.625l-1.793-.031c-1.793-.03-3.792.134-5.583.3-1.397.175-2.597.354-3.191.344-.4-.007-.802-.014-1.203.178-1.199.18-2.595.354-4.188.524-3.394.538-7.192 1.07-7.192 1.07s-.594-.011-1.396.173c-.795-.013-1.997.166-3.191.344-2.194.162-4.79.518-8.393 1.447-3.599.933-8.989 1.436-10.988 1.999-1.8.368-2.021 1.561-2.021 1.561s-1.99-.234-2.983-.253c-1.192-.021-.609.784-.631 1.981-.024 1.394.749 2.801 1.888 6.006 1.137 3.209 1.427 9.389 1.771 12.783.133 3.586.22 9.96-.068 15.133-.286 5.178-.319 18.324-.328 18.719-.007.401-.645 2.779-.472 4.375.171 1.796.106 5.382.063 7.971-.044 2.587-.49 4.972.646 8.378 1.135 3.403 3.292 5.435 4.49 5.257 1.201-.381 1.25-3.169 1.25-3.169s3.577.66 5.964.704c2.391.04 3.79-.332 5.585-.5 1.398-.174 3.599-.731 6.001-1.49.805-.187 1.8-.363 2.598-.552 1.398-.174 3.597-.534 5.991-.688 1.394-.178 2.794-.354 4.186-.328 1.398-.173 2.997-.346 4.393-.519.597.009 1.201-.178 1.599-.173.796.016 2.394-.16 3.989-.328 3.783-.133 8.373-.452 10.166-.421 2.589-.151 5.195-1.104 6.008-1.886 1.007-.585.424-1.387-1.739-3.021-1.971-1.428-4.167-.866-6.564-.51-2.199.358-5.393.705-7.788 1.06-.197-.005-.403.19-.403.19-2.394.358-4.183.124-4.183.124s.018-.993.838-2.571c.627-1.582 2.266-3.944 3.923-7.701 1.66-3.757 3.289-5.92 3.289-5.92 1.753 2.226 4.473 6.255 6.048 7.079 1.784.629 7.099 4.506 7.099 4.506s.986.414.962 1.812c-.028 1.591-.051 2.984.322 4.384.168 1.601-.04 2.394-.448 2.783-.408.59-.609.586-.833 1.978-.215 1.192-.441 2.579 1.147 2.81 1.585.427 2.73 3.236 4.307 4.257 1.575 1.224 1.992.034 2.668-4.335.674-4.568.373-10.15.424-13.14-.145-2.792-.479-6.582.14-7.963.423-1.385-.346-2.797.073-4.182.23-1.59-.508-4.987-.466-7.381-.157-2.395.08-4.578-.106-5.382-.182-.996.224-1.388.058-3.183-.171-1.795 1.055-3.568.481-4.773-.579-1.205-.313-4.986-.082-6.772.435-1.981.257-3.183.465-3.776.206-.594.22-1.388.058-3.188-.168-1.795-.161-2.193-.142-3.386l.044-2.59c.225-1.392.061-3.387-.097-5.779-.16-2.194.687-5.365.687-5.365s-.159-1.995.649-2.777c1.003-.587.614-1.189-.766-2.012zm-28.61 52.885s-1.487 5.15-2.945 8.914c-.621 1.383-1.042 2.371-1.449 3.16-1.239 2.367-1.653 3.36-2.07 4.544-.417.992-.665 3.577-.665 3.577l-.398.19-.401.193s-1.598.169-3.79.331a191.21 191.21 0 0 1-8.582.844c-3.985.134-7.382.67-9.577 1.028-2.201.363-2.987-.049-4.401 1.122-1.416 1.17-2.019 1.356-2.804.943-.592-.606-.184-.997.029-1.79.011-.6.421-1.389.25-2.983-.168-1.598-.539-3.396-.539-3.396s2.374.836 3.746 2.057c1.376 1.219 4.561 1.271 5.567.896.8-.39 3.413-1.734 4.621-2.312.598-.188 1.813-1.363 3.229-2.535 1.219-1.372 2.633-2.542 3.648-3.52 1.817-1.563 3.63-2.729 5.044-3.699.401-.19.807-.581 1.21-.773 1.001-.384 2.008-1.159 3.018-1.938.81-.585 1.813-1.166 2.815-1.547.802-.183 1.203-.372 1.608-.768.609-.784.827-1.776.641-2.58a1.087 1.087 0 0 0-.578-1.002c-.986-.615-2.58-.643-3.985-.069-.194-.006-.396-.01-.4.189-1.605.771-3.243 3.329-4.245 3.71-.004.199-.204.195-.204.195-1.202.18-5.636 3.289-7.848 4.646-.202-.005-.403.194-.603.19-2.214 1.352-4.435 2.907-5.838 3.479-1.806.768-4.027 2.522-6.024 2.687-1.797.368-2.795.546-4.191.522-1.591-.03-1.574-1.022-1.574-1.022s-.062-7.968-.212-10.56c.042-2.39.044-2.589-.14-3.591.018-.992.237-1.984.246-2.579.204-.398-.015-4.265-.303-5.386-.142-.541-.067-1.8.1-2.27.41-.789-.113-1.068-.093-2.267.022-1.193.291-1.239.122-2.834-.168-1.798-.14-3.389.082-4.779.222-1.394.257-3.379.257-3.379l.135-7.771c.262-3.382.896-5.563.537-7.956-.359-2.199-1.332-3.409-1.514-4.411-.188-.798-1.361-1.816-1.361-1.816s.212-.99 1.206-.974c1.001.017 4.169 1.068 5.971.501 2.001-.561 3.191-.341 4.587-.517 1.206-.377 4.794-.714 5.594-.897.8-.184.195.401 1.177 1.215.787.41 1.564 1.62 2.141 2.825.384.808.769 1.81.76 2.203.373 1.405.96 2.013.96 2.013s1.95 2.426 2.329 3.623c.373 1.202.364 1.804-1.046 2.573-.601.188-1.804.567-3.203.94-2.4.756-5.403 1.498-6.806 2.068-2.212.962-3.989.335-5.583.307-1.591-.026-2.588-.248-3.183-.257-.603.189-1.999.362-1.999.362s1.74 3.02 2.921 3.835c1.378.819 3.344 2.446 4.138 2.462 1-.18.8.015.8.015s3.109 4.238 3.045 8.021c-.069 3.984-1.372 10.137-2.402 12.111-1.026 1.771-1.033 2.17-2.826 2.14-1.995-.034-1.981-.829-2.784-.244-.809.581-1.425 1.765-1.268 4.157.157 2.396 1.368 1.618 1.946 2.43.585.803 1.773 1.22 2.567 1.437.795.213 1.383.621 3.798-.731 1.006-.778 4.029-2.717 7.059-5.053 2.826-2.146 5.658-4.485 7.077-5.854.605-.585 1.01-.979 1.618-1.564 1.616-1.367 3.034-2.735 4.251-3.909.815-.979 1.624-1.564 1.826-1.962.417-.99.421-1.186.421-1.186s1.155 2.212 2.123 3.819c.19.399.388.604.583.813.973 1.409 2.533 3.427 2.493 5.616.161 2.196-.462 3.778-.462 3.778zm-22.71-22.703c-.195-.402-1.56-2.021-.361-2.2.8-.185 2.205-.955 3.612-1.527.197.003.397.005.603-.19 1.403-.57 2.396-.554 3.202-.938.807-.581 3.214-1.538 3.214-1.538l.767 1.605s.395.406.778 1.214c.576 1.2 1.742 2.813 2.123 3.819.967 1.609 1.742 3.018 1.532 3.608-.012.601-.805.188-1.393-.022-.197-.204-1.389-.421-2.377-.838-.592-.21-1.188-.421-1.583-.625-.991-.416-1.784-.43-1.6.169-.014.798 2.134 3.422 2.305 5.022-.029 1.591.539 3.395.128 4.184-.215.794-2.015 1.161-3.428 2.332-1.616 1.168-3.019 1.739-3.431 2.531-.204.194-.809.58-1.21.775-.8.381-1.405.57-1.405.57s-.807.78-.8.382c.011-.595.855-3.567 2.072-4.742.004-.197.004-.197.204-.195.82-1.179.629-1.781.869-3.967.434-2.187.849-3.175 1.07-4.361.224-1.396.044-2.594-.539-3.396-.197-.205-.589-.411-1.188-.426-1.192-.217-2.788-.049-2.781-.442l-.383-.804zm43.253 32.623c-.798-.013-3.73-3.251-5.691-5.079l-2.542-2.634s-1.554-2.415-3.315-4.042c-1.563-1.816-1.354-2.416-1.354-2.416s2.062-3.745 2.516-7.123c.456-3.382 1.261-3.763 1.292-5.556.23-1.59-.949-2.604-.949-2.604s-2.165-1.631-4.733-2.673c-.984-.615-1.979-.833-2.571-1.042-.798-.213-1.194-.217-1.194-.217s-.396.188-.022 1.392c.18 1.197.938 3.4.892 5.991-.045 2.588.301 5.383-.483 4.972-.787-.611-3.083-6.229-4.242-8.24-.19-.403-.383-.802-.574-1.206-.971-1.608-1.729-3.614-2.307-4.817-.773-1.21-.169-1.8-.745-2.804-.583-1.004-1.56-2.021-.76-2.405 1.006-.376 1.997-.164 2.799-.549.2.004.605-.188 1.208-.577 1.206-.576 2.615-1.547 2.832-2.34.614-1.184-.346-3.191-1.128-4.003-.39-.405-.986-.616-1.58-.822-.596-.011-1.196-.02-1.598.166-1.396.179-1.979-.629-2.797.55l-.005.2c-1.015 1.18-2.402.758-2.402.758s-.959-2.011-1.722-4.017c-.381-1.001-.763-2.003-.951-2.605a14.014 14.014 0 0 0-2.307-4.623s-1.181-1.016.426-1.582c.603-.391 1.799-.567 3.003-.946 1.398-.375 2.801-.747 4.198-.92.8-.188 1.402-.377 2.001-.563.796.017 1.599-.173 2.396-.16 2.193-.357 4.39-.519 5.594-.896l.192.005c1.603-.173 2.996-.346 3.797-.333.795-.186 3.187-.144 5.18-.11 1.99.035 2.181.639 3.962 1.267 1.782.43 2.184.238 2.356 1.833.372 1.602.323 4.39.887 6.389.564 1.805.543 2.999.707 4.994.17 1.795-.071 4.182.084 6.774.15 2.594.585 11.959.319 15.739-.264 3.781-.195 11.152-.267 15.133.131 3.989-.658 3.772-.507 6.37.159 2.39.157 2.588.339 3.392-.021.987.36 1.988-.234 1.979zm55.642-29.454c1.241.829 4.765 2.278 6.423 2.489 1.243 0 1.658-.211 2.692-.419.417 0 .829-.204 1.245-.412 1.862-.415 5.591-.674 6.626-.883 1.04-.412 2.479-.262 3.818-1.02.695-.328 2.196-.376 2.196-.376s.62 0 3.314-.417c2.692-.412 10.564-2.69 12.43-2.899 1.866-.208 1.866-.208 2.695-1.449.619-1.449.207-2.694-1.864-4.974-2.282-2.486-4.563-.828-6.009-.62-1.037.412-7.877 3.104-8.909 2.897-1.037-.208-.416-1.448-.21-2.897.21-1.243.419-3.111.419-5.39.203-2.274.409-5.596.616-7.664.207-1.866-1.45-2.903-2.07-2.697-.829.208-1.864 0-2.28-.206-.413 0-.827-.415-1.862-.621-.828 0-1.244-.206-1.867-1.037-.829-.829-1.447-1.657-2.692-1.657-1.244.208-2.276.828-3.316 1.863-.825.831-1.449 1.037-2.278 1.246h-.622c-1.035.206-.204 1.035-.204 1.035s.41.208.826.62c.829.829 2.487 2.074 3.107 2.694 1.243.828 3.112 3.521 3.526 5.803.41 2.069 2.276 8.081 2.276 8.081s0 .411.415 1.034c.619.622 0 1.451-1.658 1.659-1.658.204-2.487.619-3.938.619-1.039 0-2.278.21-3.73.418-1.24.204-2.484.413-3.523.825-1.864.828-4.768.625-6.421.625-1.657-.209-1.037 1.241-1.037 2.074-.001.827.411.827 1.866 1.656zm65.892 31.91c-.831-1.037-2.696-3.106-5.185-5.182-2.481-2.278-5.383-2.07-6.216-1.866-.827.417-3.107 1.037-4.971 1.454-1.862.208-5.807 1.037-7.874 1.037-1.865.204-8.291 1.037-9.117 1.238-.622.211-2.903 1.246-2.903.623-.203-.623.621-1.861 1.866-3.315 1.452-1.449 1.863-2.486 3.521-6.835 1.658-4.353 2.075-7.668.832-10.775-1.246-3.314-4.354-3.523-5.18-3.523-1.04.209-4.146.209-5.597 0-1.243 0 .412 1.658.412 1.658s3.109 3.731 3.109 4.765c0 .829-.619 3.524-.829 6.217-.206 2.693-2.28 9.949-3.314 11.398-.827 1.448-.621 1.448-4.348 2.277-2.075.621-7.256 1.449-10.986 1.866-1.449.208-2.692.208-3.523.208-2.692 0-13.881 1.658-16.784 2.07-2.897.62-10.567 1.861-11.6 1.861-.829 0 0 3.736 2.482 4.77 2.488 1.246 7.256 1.866 10.983.829 3.526-.829 9.947-2.072 18.441-4.148.206 0 .206-.204.417-.204 8.699-2.071 14.501-2.277 20.304-2.898 5.179-.416 18.854-1.245 23.623-1.245 4.976.204 7.041 1.245 8.083 1.657 1.032.415 1.653-.412 3.52-1.032 1.869-.835 1.656-2.076.834-2.905z"/><path fill="#FFF" d="M420.402 86.532c-.206-.206-.417-.62-.623-.829-.622-1.037-.826-2.278-1.449-2.689-.829-.833-1.66.62-1.66.62s-1.032 3.106-1.032 4.762c-.209 1.657-1.246 5.184-1.037 9.74.412 3.316 3.107 5.594 5.179 6.631.829.414 1.452.829 1.864.829.826 0 3.314 1.034 3.314 0 0-1.246-.204-3.73-1.655-5.389-1.446-1.658-2.279-5.8-2.491-8.081 0-2.074.626-4.353-.41-5.594zm112.884 27.314c.794-2.189 2.189-7.966 2.988-10.356 0-.396.196-.597.196-.796.398-1.395.999-2.589 0-3.188 0-.194-.196-.194-.196-.396-.993-.795-2.393-2.586-3.985-4.182-1.79-1.995-3.98-.6-4.18-.199-.401.598-.598 1.795-1.196 2.788-.794.991-1.396 1.195-2.589 1.195-.995.195-2.194.6-2.589.794h-.197s0-.599.197-1.592c0-.798 0-1.795.198-2.986.396-2.788 1.396-14.539 1.396-14.539s0-1.196.396-1.99c.398-.798 2.987-.6 4.583-.997 1.593-.399 4.182-.199 5.977-1.392 1.791-1.396 1.192-3.786-.604-5.579-1.589-1.793-4.774-.995-6.168-.597-1.197.199-2.79 2.189-3.389 2.189-.598 0 0-.993.2-2.189.201-1.396.397-8.963.997-12.748.596-3.582.596-8.165.197-9.36-.197-1.396.601-3.187.397-3.783-.397-.399-2.588-1.192-3.981-1.592h-.199c-1.396-.398-1.192-.798-2.189-.798-.998-.199-3.981-.6-5.578-.6-1.793.2-1.594.998-1.594.998l.992 1.793s.404.992 1.995 2.189c1.596 1.394 1.995 8.963 2.39 13.541.199 4.584.4 13.146.199 14.34 0 1.196-6.969 3.187-8.963 3.785-2.188.599-3.98-.398-4.977-.398s-1.195.997-.995 1.99c.195.997 1.59.798 1.59.798s.601.798 1.198 2.389c.396 1.396 2.59 3.39 4.579 3.785 1.99.2 1.396 0 1.99-.598.598-.6.798-.993 1.594-1.396.797-.594 2.588-1.989 3.39-1.791.795.199.795 2.987.594 5.977-.199 2.986-1.197 12.548-1.197 12.548l-.793.794c-.798.603-2.594 1.994-3.188 2.194-.599.396-2.191-.798-3.188-1.593-.798-.798-6.569-3.188-6.569-3.188s-1 1.195-.2 2.392c.795 1.393 2.391 2.391 4.579 6.17 2.19 3.586 4.182 15.139 4.182 15.139s0 1.992 1.196 3.387c1.194 1.396 1.596 4.578 2.589 4.978 1.193.199.796-.194.796-1.392s.596-3.586.596-3.586.998-.399 2.589-.794c.802 0 1.597-.403 2.395-.798.796-.398 1.594-.997 2.188-1.396.998-.397 6.574-1.392 7.771-1.392 1.191-.204 1.984-1.196 1.984-1.196s.202-.599-.793-1.596c-.993-1.195-.598-2.787.399-5.18zm-5.774-1.791c0 3.387-.198 4.185-.198 4.185s-3.589 2.385-5.578 3.385c-.197 0-.398 0-.6.197-1.795.798-4.18 1.396-4.18 1.396s0 .199-.603-.997c-.595-.995-1.394-5.377-1.394-8.364 0-3.188-.396-4.778-.396-4.778s5.178-1.793 6.771-2.19h.398c1.396-.397 2.986 0 4.182-.6.996-.597 2.392-1.395 2.791-.798.397.599-1.392 5.377-1.193 8.564zm13.939-32.863c2.193-1.592 3.387-4.579 3.387-4.579s1.791.798 3.387 1.591c1.594.798 3.188 1.596 5.178 1.796 1.191 0 2.191-.2 3.389-.398a45.2 45.2 0 0 1 3.579-.6c2.992-.598 5.776-1.392 8.764-1.793 3.188-.596 3.984-.396 5.379-1.793 1.396-1.392.396-2.984-1.193-4.379-1.396-1.197-1.99-1.197-3.383-2.589-1.396-1.196-2.193-.199-2.987.798-.802 1.192-3.391 2.983-4.782 3.582-1.197.398-1.596.398-2.788.798-.801.199-1.796.398-2.587.599-.8.199-1.594.199-1.795.396-.601.201-1.395.398-2.786.398-1.396 0-6.578.396-6.578.396s.202-.396 1.197-2.588c.997-1.99 3.985-8.165 4.78-10.754.798-2.389 2.191-6.569 3.185-11.95.998-5.374-1.191-7.968-4.976-11.151-3.586-2.987-8.565-3.586-8.565-3.586 0 .599.6 3.188 2.395 5.774 1.592 2.589 2.586 5.379 2.586 6.175 0 .798.202 1.795 0 3.188 0 1.193-.398 3.983-.994 9.561-.2 1.192-1.396 6.372-1.791 8.364-.401 1.99-.998 3.982-1.596 6.571-.799 3.185-2.189 4.979-2.588 6.173-.601 1.196-.998 2.593-.998 2.593s.993-1.197 3.181-2.593z"/><path fill="#FFF" d="M596.219 119.225c-3.981-.201-9.36-1.395-20.711-6.771-11.35-5.377-17.726-12.148-17.726-12.148 2.188-4.579 2.586-12.55 2.586-14.537-.194-1.395-1.393-2.989-3.579-3.982-.401-.202-.8-.403-1.395-.599-2.989-.798-4.782.396-4.782.396s0 .796 1.395 1.595c1.395.798 1.395 1.791 1.593 4.578.396 2.987-.598 7.173-.598 7.767 0 .402-5.178-5.372-5.576-6.17s-.993-1.597-3.385-1.992c-2.391-.597-3.987-1.195-5.379-.597-1.192.597 0 .796 0 .796s1.795 1.594 3.979 3.584c1.995 1.994 9.364 10.952 9.364 10.952-1.193 4.981-2.988 8.165-7.17 13.939-2.987 4.384-6.973 6.177-8.563 6.773-.6.198-.799.397-.799.397s0 .596.799.596c.196.202.397.202.795.202 1.594-.202 5.18-1.993 9.56-5.177 4.384-3.188 8.965-11.751 8.965-11.751s.396.195 1.196.993c.396.398 1.189 1.196 1.988 1.994 2.188 2.589 10.158 10.754 13.744 13.736 3.582 3.191 7.767 2.991 12.545 1.994 4.979-.995 10.756-3.979 12.149-5.177 1.196-1.391-.995-1.391-.995-1.391zm88.532-20.579c-1.419-1.259-2.859-1.489-4.481-2.753-1.625-1.264-3.045-2.526-4.705-1.729-1.461 1.002-1.074 2.451-1.074 2.451s-6.405 1.33-11.365 2.479c-2.484.57-5.992 1.13-9.089 1.488-3.092.15-5.768.307-7.205.283-2.677-.049-2.907 1.184-2.092 1.613.821.218 1.214 1.255 3.258 2.114 1.432.643 3.271 1.498 5.948 1.339.821.016 1.856-.174 3.099-.563 4.761-1.361 17.132-2.376 17.132-2.376s.195.414-.275 3.905c-.474 3.492-1.443 11.917-1.443 11.917s-5.373 1.141-8.052 1.301c-1.443.182-6.403 1.123-10.74 1.87-3.921.55-7.224 1.108-7.224 1.108s.005-.204-.578-2.479c-.37-2.271-2.1-9.508-2.865-12.611-.768-3.103-2.168-5.594-5.031-6.675-2.857-1.286-5.725-2.163-6.128-2.58-.618-.213-.646 1.433-.646 1.433s2.62 3.134 3.614 5.208c.997 1.873 4.162 9.544 4.53 11.816.576 2.274 1.76 5.179 2.118 8.479.359 3.094 3.989 7.273 4.832 6.259 1.02-.988.505-3.761.482-3.892.035.03.395.063 3.299-.572.823.014 2.063-.173 3.506-.351 5.57-.728 14.645-1.601 17.738-1.751 3.711-.142 7.025-1.315 8.688-2.317 1.458-1.002-.976-3.104-.976-3.104s-.611-.424.479-3.904c.882-3.278 3.904-11.252 4.751-12.681.851-1.626 2.114-3.253.495-4.725zm-59.834-39.955c-2.009-3.125-6.494-5.468-6.494-5.468-.625.608-.239 1.851.536 4.539.984 2.694.188 12.769.155 14.828.164 2.267-2.172 6.553-2.198 7.987-.23 1.44 3.204 5.204 4.632 5.847 1.229.439 2.898-.771 3.347-2.822.241-2.259.283-4.729.784-9.663.7-4.929 1.216-10.688.829-12.338-.174-1.651-1.591-2.91-1.591-2.91zm69.063-5.385c-2.643-1.896-6.534-2.994-7.358-3.011-.616-.009-1.257 1.216-2.088 1.817-1.046.803-4.335.546-10.73 1.255-6.393.709-15.882 1.575-15.882 1.575s-.621.193-.816-.423c-.193-.625-.362-2.688-.331-4.335.03-1.85-.173-2.063.472-3.694.441-1.641 2.316-2.844 1.328-5.124-.991-2.285-1.585-3.528-3.229-3.764-.208-.005-.208-.005-.208-.208-1.638-.237-2.256-.249-2.256-.249-1.405-2.083-4.489-2.34-5.953-1.132-1.264 1.421-3.897-.688-4.122.341-.431 1.021.545 4.129.545 4.129s.396 1.239 1.201 1.873c.813.63 3.076.875 3.668 2.329.801 1.246 1.917 7.856 2.096 9.714.173 2.062-1.471 1.62-3.334 1.999-1.854.173-8.055 1.505-9.698 1.477-1.442.183-4.313-.486-6.168-.519-1.643-.031-.658 2.252.561 3.307 1.421 1.053 4.048 4.188 5.7 3.598 1.864-.583 3.316-1.178 8.072-2.329 4.552-1.36 7.238-1.936 7.238-1.936s-.019.826.59 1.66c.397.828.823.018 1.451-.59l.211-.204c1.041-.812.217-.616 1.254-1.011 1.037-.6 1.871-.992 4.555-1.566 2.684-.366 5.979-.309 10.295-.232 4.326.075 14.627-.363 14.627-.363s-.03 1.65-.913 5.133c-.683 3.692-4.011 5.904-4.011 5.904s-.01.613.811.426c.829.014.844-.813 4.57-2.187 3.523-1.175 7.467-3.164 10.197-6.21.84-.805 1.266-1.621 1.273-2.237l.014-.62c.025-1.645-1.802-3.326-3.632-4.593z"/><path fill="#FFF" d="M654.264 87.614c-1.648.179-3.303.563-3.71.35-.403-.421-.997-2.078-.976-3.314.023-1.438-.104-5.766-.075-7.411-.177-1.649.253-2.673-2.389-4.57-2.847-2.108-8.378-3.855-9.211-3.249-.839.811-.031 1.854-.031 1.854 1.853.233 2.635 2.309 4.233 5.013 1.399 2.496 2.873 12.407 3.054 14.056.177 1.653 2.571 5.81 3.183 6.232.611.421 1.041-.807 1.063-2.044.021-1.231 1.058-1.418 3.534-1.786.206 0 .618-.199 1.236-.186 3.102-.563 8.673-1.494 9.907-1.473 1.438.227 2.041 1.063 2.657 1.28.608.213 2.669.249 3.103-.979.228-1.023.031-1.849.288-4.523.042-2.469.098-5.556.315-6.584.27-3.493.341-7.611.997-9.659.655-2.251-1.166-4.135-2.997-5.197-1.835-1.063-6.373-.729-7.827.069-.838.604-3.524 1.378-6.01 2.158-1.656.59-3.309.976-3.936 1.372-1.239.393-3.123 2.006-2.299 2.02 1.033-.187 2.859 1.285 4.911 1.737.412.004.819.013 1.231.02 2.262.242 5.771-.313 7.42-.488 1.862-.382 1.433.643 1.574 4.348.346 3.715.255 9.065.255 9.065s-3.93.961-5.993 1.336c-.821-.019-2.271.372-3.507.553zm131.444-43.273c.798.6 1.791 1.393 2.589 2.393.798.596 1.591 1.194 2.189 1.591 1.591.998 2.389-.199 2.389-1.396-.194-1.394 0-3.783 0-5.179.2-1.594-.798-2.387-1.99-2.788-1.195-.396-.798.199-2.588-.396 0 0-.2 0-.2-.202-1.989-.594-3.586-.396-4.18.401-.397.796 0 2.188 0 2.188s.396 2.393 1.791 3.388zm-32.264 25.292c.599-.795-.794-2.387-2.189-3.583-.599-.595-1.197-.997-1.796-1.395-1.393-.995-2.982 0-4.18.8-.993.993-2.788 1.19-2.788 1.19-.398-.995.599-5.576.599-8.162-.199-2.395-.798-8.17-2.39-9.563-1.597-1.396-8.365-2.591-8.963-1.791-.6.797 1.191 2.391 1.191 2.391s-.398.596 1.597 4.379c1.991 3.786 2.394 15.732 2.394 15.732s-6.777 2.791-9.366 4.184c-2.584 1.596-3.188 2.79-2.788 3.586.396.599 3.388.397 6.575 0 3.186-.599 5.579-1.594 5.579-1.594s.396 2.989.194 7.369c-.194 4.382-.194 26.09.199 30.47.599 4.583 1.592 8.564 2.59 9.561.998.998 1.791-1.79 2.189-5.576.594-3.983-.2-9.756 0-14.938.398-5.377.594-10.155.199-17.727-.199-7.366.599-11.151.599-11.151s1.591-.597 4.379-1.393c1.396-.398 2.788-.798 3.985-1.196.998-.398 1.992-.997 2.191-1.593z"/><path fill="#FFF" d="M804.232 88.753c-2.194-2.389-4.982-1.193-7.57 0-1.791.6-5.776 1.396-8.364 1.793-1.396.399-2.589.399-2.589.399s-.398-.399-.599-1.396c0-.996-1.99-2.389-2.788-2.593-.997-.395-.997-.993-.997-.993h1.596c.599 0 .997.6 1.994.199.989-.396 2.385-1.994 3.383-6.174.194-.399.194-.798.398-1.192.993-5.182 2.39-12.35 3.188-13.745.595-1.393 1.393-2.589 0-4.583-.599-.993-2.194-1.788-3.586-1.985-.998-.399-1.791-.399-1.791-.399s-.603-1.396-1.795-.798c-.794.199-3.979.798-6.574 1.396-2.385.596-4.577.995-4.577.995l-.396-8.962s-.604.197.793-.798c.993-.596 2.788-.995 4.18-1.394.604-.2 1.197-.2 1.597-.399 1.196-.196 2.787-1.793 2.787-1.793-.598-3.384-1.989-4.18-3.58-4.978h-.804c-1.989 0-4.772 1.396-4.772 1.396s.195-.398 0-1.796c-.199-1.194-.199-2.785 0-4.78.195-1.989-.399-3.782-3.391-5.177-.993-.599-1.99-.796-3.188-.796-2.187 0-4.18.796-4.579 1.594-.598.995.798 2.39 2.589 4.581 1.197 1.591 1.791 4.578 1.99 6.77.204 1.195.204 1.992.204 1.992l-.204.198c-.793.199-4.379 1.197-5.576 2.189-1.591 1.396-5.975 1.796-7.367 2.191-1.392.398.2 1.793.2 1.793s1.596 1.396 2.987 1.791c1.192.599 5.177.203 6.973-.395 1.188-.399 2.189-.599 2.783-.798h.399s0 .397.397 2.389c.204 2.189.798 6.773.798 6.773s-.594.199-1.596.594c-1.99.798-5.372 1.99-6.369 2.194-1.396.198-.2.991.594.991.997 0 3.388.2 4.782.403h.993a14.39 14.39 0 0 0 1.596-.403l.798 6.773s-.198.796-.599.796c-.398 0-.997.201-1.795.398-1.192.597-2.783 1.193-3.188 1.193-.595 0-.395-2.389-.395-3.782 0-1.594-.6-2.592-2.395-3.583-1.791-1.197-3.78-2.59-4.777-2.788-.998 0-1.396 2.389 0 4.978 1.392 2.589 4.184 15.133 5.177 17.727.798 2.589.997 2.787 1.596 2.39.6-.2.794-1.192.794-1.192s.403-.4 3.188-.4h.599c3.188-.199 8.563-.396 8.563-.396s1.396 2.189 1.596 2.783c.199.204.395.601.594 1 .399.795.803 1.593.803 1.593h-.803c-1.392.197-4.379.6-8.958 1.394-.798 0-1.596.198-2.394.397-5.775 1.192-13.342 2.987-15.531 3.586-.398.199-.599.199-.599.199s-2.987.599-1.197 2.19c.798.598 1.197.798 1.796.994 1.196.396 2.389.201 3.78.396 2.194 0 3.188 0 5.776-.594 1-.2 3.391-.6 5.975-1.197a297.2 297.2 0 0 1 9.765-1.99c.595-.199 1.192-.199 1.587-.397 2.194-.399 2.395-.399 2.395-.399.794 6.573.998 23.104.998 23.104s-1.797.198-3.393.599c-1.191.199-2.188.599-2.588.793-1.191.601.398 3.188 2.389 4.384l.199.2c1.596 1.396 1.596 5.973 1.796 6.374.398.396 2.589.992 2.788 1.392.292.227.492-.103 1.79-2.188 1.604-2.585 2.589-9.956 2.589-16.929.199-6.969-1.195-16.729-1.195-17.727 0-.798.996-.997 2.394-.997h15.137c2.589.199 3.587 0 4.579-.794.991-.598-1.594-4.184-3.783-6.574zm-34.459-4.978s-1.393.395-2.987.798c-1.192.396-2.584.793-2.987 1.194 0 0 .6-4.186.204-6.178-.403-1.791-.204-3.187-.204-3.187s1.393 0 2.987-.2c1.002 0 1.795 0 2.589-.396.398-.197 0 2.786.204 3.981.394 1.4.194 3.988.194 3.988zm8.564-1.396h-.2c-2.385.399-4.379.602-4.379.602s-.794-7.369 0-7.968c.798-.398 2.589-.599 4.379-1.196.399 0 1.002-.399 1.396-.597.798-.599-.594-1.395-1.396-2.188-.199-.203-.395-.403-.594-.403-.599-.793-1.196-.594-2.389-.397-1.197.201-2.19.802-1.99.599.199-1.393 0-5.373.395-6.372 0 0 2.39-.796 4.578-1.395.804-.199 1.597-.398 2.194-.398 1.592-.398 2.788.398 2.788.398s-.6 2.589-.6 5.377c-.198 2.593.399 11.95-.198 13.347.001-.003-1.59.192-3.984.591z"/><path fill="#FFF" d="M768.98 105.881c-.6-.199-1.396-.398-2.194-.798-1.597-.398-3.382-.993-4.379-.993-1.597-.198-.993 1.194-.993 1.194s1.392 3.186 2.385 4.977c.6.996 1.795 2.394 2.987 3.586 1.002.798 1.995 1.596 2.589 1.994 1.396.595 1.994-.199 2.395-1.196.599-.997.397-3.188.198-4.78-.2-1.795-1.397-3.386-2.988-3.984zm102.791-35.484c1.015-1.219 0-2.233-.813-3.249 0-.203-.203-.203-.203-.407-1.016-1.016-3.05-3.046-4.269-3.252-1.216-.201-1.216 1.426-2.438 2.236-1.015.606-.402-4.064-.199-8.532.199-4.468 1.016-11.17.607-14.02-.204-3.047-1.016-3.857-3.453-5.277-2.438-1.627-3.859-2.236-4.473-2.646-.604-.198-3.856-1.217-4.871-1.418-1.219 0 1.015 4.063 1.627 6.092.607 2.035 2.642 3.249 2.841 5.689.403 2.436.612 14.22 1.017 18.892.406 4.673-.403 5.284-.403 5.284s-.408.199-1.627.606c-1.22.606-5.284 3.252-5.284 3.252s-.204-.609.204-3.659c.204-3.045 2.03-4.672 2.642-5.688.408-1.22-.204-4.469-2.029-5.279-2.034-.611-2.643-1.626-4.064-2.643-1.423-1.015-4.676-2.642-5.079-1.83-.2.815 0 1.83 0 1.83s1.021 2.643 2.029 4.266c1.016 1.423 2.034 4.473 1.423 8.127-.407 3.453-2.233 5.484-3.049 7.312-.808 1.828 0 4.471 1.022 4.876.808.407 3.045 2.233 4.871.815 1.623-1.423 5.08-4.27 6.906-5.284 1.627-1.015 2.642-1.015 2.642-1.015.204 1.015.607 12.389.607 12.389s-1.214 1.627-3.448 3.453c-2.237 1.829-7.727 7.313-9.752 9.553-2.034 2.233-4.676 1.826-5.487 1.418-1.015-.608-2.233 0-1.627 2.032.815 2.236 4.064 4.874 6.096 5.078 1.83 0 3.254-1.627 6.503-6.499 3.249-4.875 7.717-9.547 7.717-9.547s0 2.232.208 5.481c.2 3.249 0 9.551-.208 12.594 0 3.05-.607 8.331-.607 8.331s-2.434 0-3.253.405c-.807.611 0 2.643 1.021 3.86 1.015 1.219 3.452 5.279 3.859 6.095.204.813 1.017.609 1.826 0 .813-.814.813-2.642 1.627-4.063 1.015-1.622 1.22-3.856.813-5.075-.607-1.423 0-2.442-.204-7.112-.403-4.674-.813-27.83-.813-27.83l1.219-2.846-1.219.204s.408-8.732 1.017-10.358c.407-1.831 1.219-1.018 3.049-1.423 1.215-.202 3.046 0 4.469-.408.399-.202.805-.401 1.01-.81z"/><path fill="#FFF" d="M922.352 72.227c-.813-.813-1.623-2.437-3.25-3.453-1.621-1.019-3.248-.813-4.875 0-1.628.608-1.826.201-4.469.405-2.846.407-11.986.203-14.22.611a85.96 85.96 0 0 0-7.717 1.016c-2.239.402-5.08-1.016-5.08-1.016.812-1.222 6.299-11.782 7.513-14.832 1.016-3.045.816-4.672 1.22-6.704.611-2.031-.606-3.251-1.627-4.063-1.011-.812-.603-.812-1.627-1.219-1.215-.405-1.622-.611-4.061-1.826-2.233-1.021-3.856-1.223-4.871-.813-.815.202.606 1.22.606 1.22s1.016 1.217 2.03 3.654c1.224 2.233-.606 8.328-1.825 12.598-1.021 4.061-5.691 15.234-6.906 18.688-.607 1.625-1.627 3.657-2.438 5.08-1.016 1.622-1.627 2.638-1.627 2.638s.407.407 1.627-.606c1.214-.813 2.841-2.643 5.079-4.876 2.229-2.438 5.279-6.906 5.279-6.906s.812 1.421 1.831 2.234c.807 1.015 2.841 2.846 3.651 4.063.815 1.019-1.622 7.923-5.887 16.655-4.064 8.736-7.318 14.021-7.722 14.628-.204.407-1.622 1.423-.204 1.219 1.623 0 3.861-3.249 5.688-5.891 1.83-2.438 7.313-10.563 9.955-14.216 2.644-3.661 4.469-9.146 5.08-10.363.607-1.219-1.423-3.249-1.423-3.249s-.611-.408.204-.815c.607-.404 5.075-.812 5.075-.812s0 .812.407 4.468c.407 3.861-3.05 10.563-4.265 13.613-1.219 3.045-5.08 10.561-6.706 13.204-1.826 2.638-4.668 8.125-5.482 8.937-1.017.611-1.627 2.238-1.627 2.238s.203.199 3.656-1.831c3.453-2.032 8.125-8.328 13.204-16.861 5.08-8.735 6.503-13.407 6.3-17.265-.199-3.659-4.474-6.299-4.474-6.299s2.238-.408 6.299-.408c4.27 0 9.548-.403 9.548-.403s.408-.406.607 2.234c0 2.638-1.016 10.155-2.841 15.438-1.827 5.483-4.47 10.563-5.688 12.798-1.219 2.029-2.846 5.482-4.473 5.482-1.418 0-2.434-1.016-3.453-1.016-1.214 0-.403 2.035.209 3.05.811 1.011.403 3.858.607 5.483.203 1.624-.204 2.232 2.637 1.423 3.05-.813 7.114-6.299 11.379-14.221 4.468-7.926 9.14-26.408 10.159-29.255 1.221-3.045-.406-3.249-1.012-3.858zm79.692-2.924c-.391.391-1.37.779-2.54 1.171-1.95.585-4.295 1.17-4.686 1.366-.976.389-3.705-.781-5.271-.393-1.56.393.2 2.73.2 2.73.975 0 2.146 1.954 2.729 3.125.586 1.364 2.146.779 2.535-.394.59-1.362 2.149-1.56 3.715-2.535.19-.196.386-.196.775-.388 1.365-.587 2.73-.587 4.295-.979 1.756-.391 4.291-1.561 5.071-.976.784.585 1.369-2.729.784-3.317-.784-.777-3.905-1.362-4.881-1.362-1.17.002-1.75 1.365-2.726 1.952zm-7.611-12.101c-1.76.386-5.858-.197-5.858-.197 1.175 2.147 2.148 4.488 4.1 4.688 1.365 0 4.102-.979 6.831-2.149.976-.391 2.149-.779 3.125-1.171 3.511-1.17 14.047-2.34 14.047-2.34s0 1.755-.581 4.876c-.585 2.93-1.755 3.71-1.365 3.71.391 0 4.682-.978 7.807-3.71 3.125-2.926 4.49-3.903 4.096-5.854-.189-2.146-2.146-1.562-2.926-1.951-.975-.194-1.755-1.17-3.125-2.149-1.561-.774-3.705-1.753-4.1-.585-.582 1.369-1.946 2.146-1.946 2.146-2.925-.387-12.881 2.733-12.881 2.733s-.199-3.705 0-8.001c.194-4.096.78-4.88 1.171-6.635.193-1.561-1.37-1.953-3.32-2.733-.585-.193-.976-.39-1.365-.582-2.535-1.175-2.535-.391-2.535-.391s-1.17-.587-2.149-.395c-.976.196-2.54-.192-3.511-.391-.976-.192-.396 1.175.779 2.537 1.17 1.171.392 2.538 1.756 3.513 1.365.782 1.761 2.344 1.761 2.344.385 1.366 2.336 11.317 2.336 11.317s-.591.981-2.147 1.37zm-16.595 13.076s0 .585.395 1.365c0 .39.391.975.779 1.758 1.172 1.755 3.905 4.487 3.905 4.487s.386-.195 1.17-1.756c.776-1.369 1.171-2.345 1.562-4.489.194-2.146.194-4.486.386-8.586.39-4.102-2.146-5.075-3.313-6.054-1.368-1.173-2.93-1.173-2.93-1.173s0 .59.391 3.711c.585 3.124-.194 4.88-.391 7.811-.195 2.146-1.17 2.729-1.562 2.926-.392.196-.392 0-.392 0zm70.655 39.423c0-2.926-1.365-4.681-1.365-4.681s-.585 1.561-1.76 4.096c-.976 2.54-2.73 6.442-10.341 8.396-9.956 2.534-25.178 1.949-27.327 1.17-2.34-.784-2.73-2.73-2.73-5.662 0-2.924 4.882-12.489 5.661-15.029.979-2.338-.586-5.27-1.949-5.465-1.172-.19-4.882-1.753-4.882-1.753s0-.583.195-1.953c.39-1.56-.785-2.93-.785-2.93s-.385-.391.98-.977c1.364-.39 5.266-1.95 6.439-2.34.979-.391 1.17.585 1.17 1.17s1.761-.975 2.54-1.755-.59-2.341-2.149-3.516c-1.561-1.17-3.705-.976-4.682.194-.979 1.17-5.854 2.931-7.81 3.516l-.195.192c-2.535.979-11.126 4.884-12.687 5.658-1.755.784-6.05-.386-7.807-.581-1.755-.193 0 1.756 0 2.341 0 .396.78 1.365 1.95 3.315.977 1.76 4.102 2.345 4.49 1.955.391-.195.581-1.171 2.926-2.345 2.146-1.166 9.565-5.268 11.126-6.05h.195c0 .782 0 1.759-.195 2.732-.976 3.121-3.706 7.221-9.756 15.222a81.759 81.759 0 0 1-11.517 12.296c-2.734 2.15-4.494 3.32-4.494 3.32s.395 1.17 2.345-.195c.585-.194 1.175-.585 2.149-1.364 2.336-1.761 6.437-5.271 11.905-9.955 3.9-3.32 7.025-7.418 9.366-10.541 1.76-2.533 2.93-4.485 2.93-4.485s.392.779.977 2.146c.585 1.563 0 3.711-1.176 10.15-1.17 6.438-1.17 9.563.784 13.855 1.95 4.489 22.442 6.051 31.229 5.466 8.979-.585 12.881-4.88 13.661-6.636 1.564-3.119.589-5.852.589-8.977z"/><path fill="#FFF" d="M976.667 87.064c.785-.588 1.171-1.365 1.563-2.345.392-1.757.392-4.097 0-7.026-.198-.194-.198-.585-.198-.782-.972-5.268-4.097-12.686-5.07-14.049-.979-1.17-4.101-4.88-4.101-4.88 2.926-2.93 7.416-12.103 8.591-13.856.971-1.76.194-1.955-1.37-2.93-1.365-.973-1.95-1.561-3.12-2.538-1.175-1.17-3.71-.388-5.274.197-1.557.386-1.945 2.54-1.945 2.54s-.195.774-2.932 1.558c-2.925.778-5.27 1.173-5.659 1.365-.391 0-1.755.391-2.149.978-.386.585 0 1.95 0 1.95s3.905 3.121 4.885 3.515c.976.392.775.191 2.34-1.368 1.562-1.561 1.757-1.365 4.687-2.73s.774 1.562 1.17 2.146c-1.365 4.881-2.729 7.42-3.319 8.78-.586 1.176-.779 1.761-1.171 3.516-.386 1.563 1.365 1.955 1.365 1.955s.785-.59 1.365-1.173c.59-.782 1.175 0 2.739 1.756 1.557 1.952 1.557 8.199 1.75 10.734.396 2.535-1.364 2.147-3.125 1.759-1.75-.392-6.436-1.759-6.436-1.759V72.23c0-1.562 0-7.416-.195-10.927 0-3.319-.779-3.715-1.955-4.881-.975-1.175-7.414-4.686-7.414-4.686s-1.365.586-.195 3.316c1.175 2.93 2.734 6.249 4.1 15.029 1.365 8.977 1.365 22.639 1.171 28.888 0 6.437-.976 20.882-.976 23.611 0 2.735 2.341 6.25 3.706 5.855 1.369-.391 2.146-2.34 2.146-4.682.199-2.148 0-8.197.199-15.811.19-7.416-.585-28.888-.585-28.888s-.195-1.365.775-1.561c.979-.194 1.76.194 2.54.78.979.585 3.319 3.319 5.074 4.685 1.948 1.566 5.073 5.861 7.023 4.106zM320.57 153.63c-.57.07-1.138.151-1.705.244a4.312 4.312 0 0 0-1.99.862c-.523.395-.896 1.077-1.117 2.043-.222.965-.333 2.381-.333 4.251v22.397h-3.759l-18.559-24.21v14.667c0 1.821.11 3.204.336 4.152.222.946.585 1.642 1.091 2.079.375.323.966.607 1.773.859.807.249 1.454.417 1.946.506v1.737H285.53v-1.737c.545-.045 1.17-.15 1.877-.319.705-.168 1.301-.43 1.787-.784.545-.426.917-1.067 1.115-1.929.197-.859.297-2.305.297-4.335v-14.818a6.756 6.756 0 0 0-.315-2.083 4.234 4.234 0 0 0-1.013-1.688 5.44 5.44 0 0 0-1.669-1.18 10.021 10.021 0 0 0-2.147-.672v-1.739h11.184l16.276 21.233v-11.895c0-1.894-.12-3.298-.359-4.22-.237-.923-.609-1.607-1.117-2.054-.403-.337-.998-.629-1.78-.873s-1.412-.407-1.888-.499v-1.694h12.792v1.699zm36.05 29.59h-16.266v-1.737c.759-.059 1.656-.204 2.691-.43 1.032-.228 1.551-.511 1.551-.853 0-.115-.013-.248-.035-.395a3.372 3.372 0 0 0-.164-.6l-2.542-6.483H331.5a82.793 82.793 0 0 0-.791 2.119 61.325 61.325 0 0 0-.749 2.162c-.262.819-.419 1.418-.471 1.786a6.064 6.064 0 0 0-.077.771c0 .47.346.873 1.037 1.201.696.332 1.842.57 3.439.718v1.737h-12.236v-1.737c.47-.031.998-.106 1.576-.23.581-.124 1.033-.297 1.356-.519a5.346 5.346 0 0 0 1.479-1.304 7.112 7.112 0 0 0 .99-1.83c1.616-4.137 3.243-8.275 4.874-12.426a4884.74 4884.74 0 0 1 5.423-13.723h4.189a1986.144 1986.144 0 0 1 6.449 16.813 535.23 535.23 0 0 0 3.956 10.238c.194.44.425.843.707 1.201.279.363.676.702 1.189 1.028.399.233.854.412 1.368.526.514.119.983.19 1.409.223v1.74h.003zm-15.641-12.651l-4.348-11.425-4.305 11.425h8.653zm44.703-9.665h-1.669c-.424-1.33-1.115-2.755-2.075-4.275-.957-1.521-1.837-2.341-2.642-2.456a26.827 26.827 0 0 0-1.655-.153 24.74 24.74 0 0 0-1.7-.067h-.964v24.474c0 .528.087.996.266 1.397.178.401.539.721 1.086.955.324.133.827.271 1.505.408.681.137 1.257.239 1.731.297v1.737H362.95v-1.737l1.72-.188c.733-.078 1.236-.182 1.5-.297.543-.233.906-.55 1.093-.943.182-.396.277-.864.277-1.409v-24.694h-.988c-.479 0-1.044.022-1.696.067-.551.034-1.102.086-1.65.153-.803.115-1.678.935-2.627 2.456-.948 1.521-1.64 2.945-2.078 4.275h-1.669v-8.97h28.852v8.97h-.002zm22.637 22.316H391.84v-1.737l1.665-.133c.733-.059 1.236-.146 1.516-.268.512-.217.862-.505 1.053-.868.19-.358.286-.814.286-1.374v-22.148c0-.499-.093-.94-.275-1.321-.184-.381-.538-.69-1.063-.927-.337-.146-.829-.297-1.48-.452a16.89 16.89 0 0 0-1.7-.315v-1.74h16.479v1.74c-.426.042-.948.107-1.569.188a8.815 8.815 0 0 0-1.591.337c-.541.194-.904.491-1.086.896-.185.402-.275.863-.275 1.374v22.127c0 .528.096.979.284 1.355.192.372.55.678 1.077.913.292.133.777.262 1.458.386.681.124 1.245.199 1.702.23v1.737h-.002zm33.244-27.783c1.475 1.412 2.646 3.116 3.507 5.109.864 1.995 1.297 4.27 1.297 6.822 0 2.273-.368 4.441-1.097 6.493-.729 2.058-1.782 3.823-3.151 5.307a15.744 15.744 0 0 1-5.113 3.6c-1.948.854-4.271 1.285-6.971 1.285-2.186 0-4.244-.372-6.187-1.121a15.185 15.185 0 0 1-5.122-3.259c-1.462-1.395-2.619-3.09-3.475-5.084-.855-1.994-1.281-4.22-1.281-6.671 0-2.554.415-4.866 1.248-6.945.833-2.074 1.981-3.854 3.441-5.337 1.459-1.453 3.183-2.57 5.169-3.355 1.98-.784 4.096-1.179 6.338-1.179 2.243 0 4.345.381 6.306 1.144 1.962.766 3.659 1.827 5.091 3.191zm-5.407 22.344c.636-1.334 1.095-2.846 1.374-4.534.282-1.688.423-3.596.423-5.723 0-1.81-.122-3.564-.365-5.275-.244-1.711-.663-3.229-1.255-4.564-.604-1.338-1.412-2.409-2.418-3.213-1.004-.813-2.254-1.216-3.748-1.216-2.544 0-4.479 1.26-5.802 3.776-1.323 2.517-1.983 6.072-1.983 10.665 0 1.954.145 3.799.433 5.527.287 1.732.742 3.244 1.364 4.536.634 1.306 1.438 2.322 2.405 3.048.971.727 2.163 1.091 3.583 1.091 1.405 0 2.606-.364 3.604-1.101.999-.735 1.793-1.738 2.385-3.017zm50.245-24.151c-.401.048-.974.127-1.704.244a4.318 4.318 0 0 0-1.993.862c-.521.395-.894 1.077-1.114 2.043-.224.965-.335 2.381-.335 4.251v22.397h-3.757l-18.559-24.21v14.667c0 1.821.109 3.204.334 4.152.225.946.588 1.642 1.093 2.079.373.323.967.607 1.772.859.808.249 1.454.417 1.945.506v1.737h-12.721v-1.737c.543-.045 1.165-.15 1.875-.319.704-.168 1.301-.43 1.786-.784.545-.426.915-1.067 1.113-1.929.197-.859.297-2.305.297-4.335v-14.818c0-.734-.104-1.427-.315-2.083a4.252 4.252 0 0 0-1.011-1.688 5.464 5.464 0 0 0-1.669-1.18 10.039 10.039 0 0 0-2.147-.672v-1.739h11.184l16.276 21.233v-11.895c0-1.894-.12-3.298-.359-4.22-.238-.923-.608-1.607-1.116-2.054-.405-.337-.997-.629-1.779-.873s-1.412-.407-1.889-.499v-1.694h12.793v1.699zm36.052 29.59h-16.269v-1.737c.76-.059 1.658-.204 2.69-.43 1.033-.228 1.552-.511 1.552-.853 0-.115-.013-.248-.035-.395a3.372 3.372 0 0 0-.164-.6l-2.544-6.483H497.33c-.232.603-.499 1.308-.791 2.118a72.703 72.703 0 0 0-.749 2.163c-.262.819-.422 1.418-.473 1.786a6.448 6.448 0 0 0-.075.771c0 .47.346.873 1.039 1.201.69.332 1.838.57 3.436.718v1.737h-12.232v-1.737c.47-.031.997-.106 1.574-.23.581-.124 1.033-.297 1.356-.519a5.346 5.346 0 0 0 1.479-1.304 7.082 7.082 0 0 0 .99-1.83c1.616-4.137 3.242-8.275 4.874-12.426a4884.74 4884.74 0 0 1 5.423-13.723h4.189a2020.814 2020.814 0 0 1 6.449 16.813 511.251 511.251 0 0 0 3.956 10.238c.189.44.43.843.703 1.201.279.363.68.702 1.192 1.028.399.233.854.412 1.368.526.514.119.986.19 1.411.223v1.74h.004zm-15.643-12.651l-4.348-11.425-4.305 11.425h8.653zm48.495 2.642l-.597 10.01h-27.42v-1.737a32.46 32.46 0 0 0 1.732-.208c.656-.096 1.092-.188 1.294-.275.52-.208.871-.492 1.064-.858.19-.368.288-.836.288-1.41v-22.038c0-.528-.08-.967-.235-1.313-.154-.341-.526-.655-1.116-.936-.429-.203-.943-.367-1.561-.492a30.57 30.57 0 0 0-1.468-.275v-1.74h16.334v1.74c-.438.042-.962.107-1.564.188a8.843 8.843 0 0 0-1.591.341c-.541.19-.904.487-1.089.893-.188.435-.28.904-.271 1.378v20.545c0 .971.065 1.732.196 2.292.131.559.375.971.728 1.231.367.279.878.461 1.531.54.651.08 1.552.12 2.699.12a24.28 24.28 0 0 0 3.258-.208c1.056-.138 1.813-.442 2.271-.911.718-.747 1.454-1.798 2.201-3.148.751-1.356 1.345-2.599 1.784-3.725l1.532-.004zm52.817-13.457c0 1.765-.347 3.28-1.038 4.553a8.484 8.484 0 0 1-2.867 3.095c-1.264.819-2.704 1.414-4.326 1.781-1.615.367-3.431.55-5.444.55h-2.449v8.797c0 .529.093.99.288 1.378.189.388.554.703 1.09.938.279.114.74.238 1.379.375.536.115 1.077.203 1.622.264v1.737h-16.201v-1.737c.415-.045.956-.106 1.627-.188.675-.078 1.141-.182 1.405-.297.545-.233.906-.521 1.082-.858.177-.337.266-.809.266-1.41v-22.038c0-.515-.084-.958-.253-1.332-.168-.375-.531-.688-1.095-.938-.384-.173-.904-.333-1.561-.471a18.897 18.897 0 0 0-1.473-.275v-1.74h16.456c3.854 0 6.733.643 8.638 1.929 1.904 1.281 2.854 3.245 2.854 5.887zm-8.135 1.086c0-2.331-.451-4.063-1.358-5.189-.904-1.131-2.528-1.698-4.873-1.698h-1.76v13.626h.889c2.331 0 4.099-.55 5.301-1.647 1.203-1.105 1.801-2.8 1.801-5.092zm43.774 22.38h-16.268v-1.737c.76-.059 1.657-.204 2.691-.43 1.033-.228 1.553-.511 1.553-.853 0-.115-.015-.248-.035-.395a3.559 3.559 0 0 0-.167-.6l-2.539-6.483h-10.357c-.231.603-.496 1.308-.791 2.118-.261.718-.51 1.438-.747 2.163-.264.819-.421 1.418-.474 1.786a6.885 6.885 0 0 0-.073.771c0 .47.345.873 1.039 1.201.691.332 1.835.57 3.437.718v1.737h-12.238v-1.737a10.892 10.892 0 0 0 1.578-.23c.58-.124 1.035-.297 1.355-.519a5.286 5.286 0 0 0 1.479-1.304c.42-.558.754-1.174.991-1.83 1.618-4.137 3.243-8.275 4.873-12.426 1.634-4.147 3.439-8.724 5.424-13.723h4.188a1952.645 1952.645 0 0 1 6.449 16.813c1.552 4.116 2.87 7.532 3.959 10.238.19.44.425.843.704 1.201.279.363.679.702 1.191 1.028a4.68 4.68 0 0 0 1.368.526c.515.119.981.19 1.409.223l.001 1.744zm-15.64-12.651l-4.35-11.425-4.304 11.425h8.654zm48.492 2.642l-.595 10.01h-27.424v-1.737c.581-.054 1.16-.123 1.737-.208.656-.096 1.088-.188 1.294-.275.517-.208.869-.492 1.062-.858.193-.368.288-.836.288-1.41v-22.038c0-.528-.077-.967-.231-1.313-.155-.341-.527-.655-1.117-.936-.428-.203-.948-.367-1.561-.492a30.501 30.501 0 0 0-1.472-.275v-1.74h16.338v1.74a44.11 44.11 0 0 0-1.568.188 8.977 8.977 0 0 0-1.589.341c-.541.19-.904.487-1.088.893-.183.402-.271.863-.271 1.378v20.545c0 .971.063 1.732.197 2.292.131.559.375.971.727 1.231.368.279.876.461 1.532.54.651.08 1.551.12 2.699.12 1.111 0 2.198-.065 3.258-.208 1.055-.138 1.813-.442 2.27-.911.719-.747 1.449-1.798 2.203-3.148.747-1.356 1.341-2.599 1.781-3.725l1.53-.004zm37.482 10.009h-16.268v-1.737c.758-.059 1.653-.204 2.688-.43 1.034-.228 1.552-.511 1.552-.853a2.86 2.86 0 0 0-.033-.395 4.035 4.035 0 0 0-.164-.6l-2.544-6.483h-10.354a99.776 99.776 0 0 0-.793 2.118 60.035 60.035 0 0 0-.747 2.163c-.262.819-.421 1.418-.475 1.786a6.448 6.448 0 0 0-.075.771c0 .47.346.873 1.039 1.201.694.332 1.84.57 3.438.718v1.737h-12.235v-1.737c.53-.038 1.056-.115 1.575-.23.58-.124 1.033-.297 1.355-.519a5.273 5.273 0 0 0 1.479-1.304 7.003 7.003 0 0 0 .989-1.83 6751.277 6751.277 0 0 1 10.297-26.148h4.189a1952.645 1952.645 0 0 1 6.449 16.813 517.462 517.462 0 0 0 3.958 10.238c.19.44.426.843.705 1.201.278.363.678.702 1.192 1.028.395.233.851.412 1.364.526.515.119.983.19 1.414.223v1.74h.005zm-15.645-12.651l-4.347-11.425-4.309 11.425h8.656zm33.526 13.484c-2.198 0-4.251-.37-6.157-1.112a14.28 14.28 0 0 1-4.985-3.228c-1.388-1.383-2.479-3.09-3.285-5.124-.802-2.039-1.201-4.272-1.201-6.716 0-2.424.403-4.667 1.216-6.731.812-2.063 1.949-3.854 3.407-5.366 1.434-1.482 3.152-2.635 5.155-3.45 2.008-.814 4.153-1.224 6.439-1.224 1.668 0 3.184.211 4.549.627 1.362.419 2.511.894 3.44 1.421l1.304-1.215h1.809l.208 11.402H742c-1.046-3.469-2.305-6.018-3.775-7.645-1.472-1.622-3.269-2.438-5.388-2.438-2.633 0-4.641 1.22-6.015 3.652-1.38 2.434-2.063 5.845-2.063 10.239 0 2.485.235 4.604.707 6.359.47 1.761 1.081 3.175 1.833 4.247.826 1.116 1.788 1.938 2.896 2.46 1.104.52 2.328.78 3.666.78 1.976 0 3.729-.563 5.264-1.69 1.527-1.129 2.93-2.836 4.197-5.122l1.809 1.151a19.434 19.434 0 0 1-2.07 3.484 12.753 12.753 0 0 1-2.664 2.646 13.912 13.912 0 0 1-3.68 1.905c-1.337.462-2.915.688-4.741.688zm47.819-24.121h-1.667c-.407-1.188-1.106-2.391-2.097-3.604-.983-1.217-1.963-1.935-2.947-2.154-.403-.102-.984-.162-1.729-.186a66.421 66.421 0 0 0-1.841-.036h-4.316v12.028h3.026c.771 0 1.469-.097 2.094-.286.625-.195 1.191-.563 1.696-1.108.323-.341.644-.938.962-1.79.319-.859.532-1.604.631-2.237h1.67v13.07h-1.67c-.086-.615-.298-1.392-.631-2.322-.337-.932-.656-1.573-.962-1.924-.465-.527-1.006-.892-1.622-1.091-.615-.194-1.339-.297-2.168-.297h-3.026v9.021c0 .938.063 1.688.194 2.237.133.555.381.976.749 1.269.352.278.833.461 1.445.55.606.089 1.437.133 2.478.133.502 0 1.092-.005 1.773-.021.684-.016 1.28-.061 1.795-.134a11.065 11.065 0 0 0 1.653-.329c.514-.146.891-.358 1.144-.639.674-.719 1.433-1.813 2.271-3.285.838-1.472 1.388-2.574 1.653-3.311h1.528l-.576 9.733h-27.93v-1.737c.397-.031.931-.089 1.604-.178.674-.086 1.146-.19 1.427-.307.546-.233.909-.532 1.082-.891.178-.359.266-.82.266-1.379v-22.038c0-.528-.075-.967-.229-1.313-.155-.341-.527-.655-1.117-.936-.354-.175-.864-.337-1.524-.482a18.352 18.352 0 0 0-1.507-.286v-1.739h26.418v7.999zm68.954 23.288h-16.13v-1.737c.47-.045 1.05-.12 1.746-.222.695-.103 1.166-.214 1.414-.328.514-.223.878-.523 1.099-.904.218-.381.328-.864.328-1.454V155.22l-10.217 27.513h-2.643c-.133-.483-.442-1.445-.936-2.888a277.79 277.79 0 0 0-1.201-3.465l-7.526-21.512v19.012c0 1.821.11 3.207.332 4.153.228.948.59 1.64 1.092 2.083.346.306.961.604 1.849.882.887.279 1.512.438 1.875.483v1.737h-12.728v-1.737a29.63 29.63 0 0 0 1.711-.297c.785-.155 1.438-.421 1.955-.804.56-.411.932-1.104 1.121-2.083.191-.976.289-2.366.289-4.171V158.65c0-.939-.111-1.72-.333-2.345-.222-.623-.559-1.117-1.015-1.485-.563-.456-1.141-.749-1.729-.882a11.89 11.89 0 0 0-1.79-.265v-1.739h13.76l7.287 20.59 6.209-16.729c.223-.613.426-1.344.62-2.193.19-.848.294-1.4.312-1.667h13.249v1.739c-.448.028-.918.09-1.41.176-.496.089-.966.208-1.409.351-.545.194-.909.496-1.086.904a3.347 3.347 0 0 0-.266 1.365v22.127c0 .528.084.976.261 1.334.178.358.537.672 1.077.936.275.133.736.257 1.374.372.635.12 1.122.199 1.459.244v1.737zm41.966-29.499c-.395.045-.982.143-1.75.298-.768.153-1.414.421-1.929.802-.536.368-.913 1.024-1.13 1.977-.228.953-.333 2.382-.333 4.287v11.608c0 3.413-1.107 6.161-3.324 8.24-2.212 2.083-5.146 3.12-8.794 3.12-4.233 0-7.514-1.001-9.841-3.01-2.322-2.009-3.483-4.808-3.483-8.399v-15.957c0-.516-.098-.953-.293-1.321-.189-.363-.554-.693-1.086-.988-.368-.189-.82-.341-1.352-.461a15.667 15.667 0 0 0-1.305-.24v-1.74h15.572v1.74c-.439.027-.896.086-1.356.165-.46.08-.931.199-1.4.359-.545.177-.903.472-1.081.882s-.266.871-.266 1.383v15.74c0 3.094.654 5.344 1.963 6.751 1.308 1.405 3.199 2.109 5.683 2.109 2.447 0 4.371-.775 5.767-2.331 1.394-1.552 2.094-3.839 2.094-6.857v-10.57c0-1.878-.124-3.28-.377-4.211-.248-.933-.62-1.602-1.121-2.014-.364-.32-1.002-.615-1.902-.878-.903-.266-1.528-.426-1.884-.482v-1.786h12.93l-.002 1.784zm66.197 6.211h-1.671c-.412-1.188-1.108-2.391-2.093-3.604-.988-1.217-1.973-1.935-2.947-2.154-.407-.102-.983-.162-1.733-.186a66.277 66.277 0 0 0-1.839-.036h-4.316v12.028h3.026a7.183 7.183 0 0 0 2.092-.286c.625-.195 1.192-.563 1.698-1.108.323-.341.643-.938.962-1.79.318-.859.531-1.604.634-2.237h1.666v13.07h-1.666c-.089-.615-.302-1.392-.634-2.322-.333-.932-.651-1.573-.962-1.924a3.598 3.598 0 0 0-1.622-1.091c-.617-.194-1.339-.297-2.168-.297h-3.027v9.021c0 .938.066 1.688.199 2.237.129.555.381.976.749 1.269.352.278.829.461 1.44.55s1.437.133 2.479.133c.5 0 1.09-.005 1.772-.021s1.281-.061 1.795-.134a11 11 0 0 0 1.652-.329c.516-.146.896-.358 1.148-.639.674-.719 1.432-1.813 2.266-3.285.838-1.472 1.388-2.574 1.652-3.311h1.529l-.571 9.733h-27.93v-1.737c.398-.031.931-.089 1.601-.178.674-.086 1.147-.19 1.432-.307.541-.233.904-.532 1.082-.891.172-.359.262-.82.262-1.379v-22.038c0-.528-.075-.967-.23-1.313-.154-.341-.526-.655-1.111-.936-.359-.175-.869-.337-1.529-.482a19.136 19.136 0 0 0-1.503-.286v-1.739h26.418l-.002 7.999zm42.628-6.211c-.398.045-.984.143-1.755.298-.768.153-1.41.421-1.93.802-.53.368-.907 1.024-1.13 1.977-.222.953-.333 2.382-.333 4.287v11.608c0 3.413-1.106 6.161-3.318 8.24-2.217 2.083-5.146 3.12-8.794 3.12-4.238 0-7.52-1.001-9.841-3.01-2.328-2.009-3.488-4.808-3.488-8.399v-15.957c0-.516-.099-.953-.288-1.321-.195-.363-.556-.693-1.086-.988-.368-.189-.82-.341-1.354-.461a15.263 15.263 0 0 0-1.308-.24v-1.74h15.572v1.74c-.439.027-.893.086-1.356.165-.461.08-.927.199-1.396.359-.551.177-.908.472-1.081.882a3.457 3.457 0 0 0-.268 1.383v15.74c0 3.094.656 5.344 1.96 6.751 1.308 1.405 3.199 2.109 5.683 2.109 2.45 0 4.375-.775 5.768-2.331 1.396-1.552 2.096-3.839 2.096-6.857v-10.57c0-1.878-.128-3.28-.376-4.211-.253-.933-.625-1.602-1.121-2.014-.367-.32-1.003-.615-1.906-.878-.903-.266-1.528-.426-1.879-.482v-1.786h12.93l-.001 1.784zm47.002 29.499h-16.13v-1.737c.47-.045 1.051-.12 1.746-.222.695-.103 1.166-.214 1.414-.328.515-.223.878-.523 1.1-.904s.328-.864.328-1.454V155.22l-10.213 27.513h-2.646c-.133-.483-.443-1.445-.931-2.888a524.848 524.848 0 0 0-1.201-3.465l-7.531-21.512v19.012c0 1.821.111 3.207.333 4.153.227.948.589 1.64 1.09 2.083.347.306.967.604 1.854.882.886.279 1.507.438 1.865.483v1.737h-12.722v-1.737c.354-.045.922-.143 1.711-.297.784-.155 1.44-.421 1.954-.804.556-.411.933-1.104 1.122-2.083.195-.976.288-2.366.288-4.171V158.65c0-.939-.11-1.72-.333-2.345-.221-.623-.559-1.117-1.015-1.485-.563-.456-1.141-.749-1.729-.882a11.885 11.885 0 0 0-1.791-.265v-1.739h13.76l7.286 20.59 6.21-16.729c.223-.613.427-1.344.62-2.193.191-.848.293-1.4.312-1.667h13.249v1.739c-.443.028-.913.09-1.409.176-.497.089-.967.208-1.41.351-.545.194-.908.496-1.086.904a3.33 3.33 0 0 0-.266 1.365v22.127c0 .528.084.976.262 1.334.177.358.536.672 1.077.936.278.133.734.257 1.368.372.64.12 1.127.199 1.464.244v1.737zm-136.026.838c-1.822 0-3.515-.244-5.084-.728-1.578-.479-2.908-1.042-3.998-1.688l-1.444 1.543h-1.765l-.293-11.309h1.813a29.753 29.753 0 0 0 1.547 3.396 16.614 16.614 0 0 0 2.182 3.194 11.27 11.27 0 0 0 2.854 2.403c1.055.615 2.287.924 3.695.924 1.901 0 3.355-.489 4.366-1.465 1.016-.976 1.521-2.205 1.521-3.688 0-1.22-.431-2.242-1.29-3.073-.855-.831-2.189-1.55-3.989-2.152l-3.236-1.104a60.745 60.745 0 0 1-2.773-1.037c-1.999-.841-3.479-2.039-4.45-3.598s-1.458-3.301-1.458-5.225c0-1.219.253-2.392.758-3.515.501-1.126 1.236-2.137 2.203-3.032.922-.838 2.104-1.521 3.546-2.052 1.44-.528 3.01-.794 4.703-.794 1.648 0 3.195.244 4.637.732 1.44.49 2.575.979 3.403 1.461l1.281-1.32h1.809l.146 10.639h-1.81a43.117 43.117 0 0 0-1.479-3.516c-.563-1.196-1.161-2.193-1.791-2.987a8.268 8.268 0 0 0-2.367-2.039c-.896-.505-1.94-.758-3.144-.758-1.507 0-2.742.447-3.7 1.343-.953.9-1.437 2.008-1.437 3.334 0 1.25.416 2.273 1.25 3.067.833.793 2.133 1.49 3.893 2.096 1.037.366 2.092.736 3.169 1.104s2.034.719 2.872 1.06c2.029.82 3.572 1.96 4.628 3.409 1.055 1.448 1.583 3.249 1.583 5.396a9.118 9.118 0 0 1-.9 3.928c-.603 1.266-1.414 2.315-2.434 3.158-1.117.924-2.411 1.641-3.878 2.142-1.473.498-3.184.751-5.139.751z"/><path fill="#7D0000" d="M223.543 111.78c0 61.719-50.042 111.771-111.771 111.771C50.042 223.552 0 173.499 0 111.78 0 50.055 50.042 0 111.772 0c61.729 0 111.771 50.055 111.771 111.78z"/><g fill="#FFF"><path d="M73.448 40.611H40.616v32.854h32.832V40.611zM62.501 62.504h-10.95V51.575h10.95v10.929zm87.597-21.893v32.854h32.83V40.611h-32.83zm21.883 21.893h-10.94V51.575h10.94v10.929zm-21.883 120.441h32.83v-32.85h-32.83v32.85zm10.944-21.883h10.94V172h-10.94v-10.938zM40.616 182.945h32.832v-32.85H40.616v32.85zm10.936-21.883h10.95V172h-10.95v-10.938zm76.622 10.937h-10.933V51.575h10.933v21.89h10.955V40.611H84.403v32.854h10.951v-21.89h10.94v120.424h-10.94v-21.902H84.403v32.849h54.726v-32.849h-10.955v21.902z"/><path d="M95.354 84.409H40.616v32.832h32.832v-10.938H51.561V95.371h32.842v32.836H40.616v10.948h54.738V84.409zm54.725 21.893v10.938h32.836V84.409h-54.741v54.746h54.741v-10.948h-43.786V95.371h32.833v10.932h-21.883z"/></g></svg>